<?xml version="1.0" standalone="no"?>
<!DOCTYPE svg PUBLIC "-//W3C//DTD SVG 1.1//EN" "http://www.w3.org/Graphics/SVG/1.1/DTD/svg11.dtd" >
<svg xmlns="http://www.w3.org/2000/svg">
<defs>
  <font id="mdn-Icon" horiz-adv-x="1000">
    <font-face font-family="mdn-Icon"
      units-per-em="1000" ascent="1000"
      descent="0" />
    <missing-glyph horiz-adv-x="0" />
    <glyph glyph-name="45g"
      unicode="&#xEA01;"
      horiz-adv-x="1000" d="M950.7291666666666 691.0833333333334L858.5624999999999 598.9166666666667L884.6041666666666 572.9166666666667L976.7291666666666 665.0833333333333L950.7291666666666 691.0833333333334zM824.6041666666666 431.1666666666668L761.4375 431.9166666666667H761.1041666666666C746.9791666666665 431.9166666666667 735.4791666666665 420.5416666666668 735.2708333333333 406.375C735.1041666666665 392.0833333333334 746.5625 380.4166666666668 760.8124999999999 380.2083333333334L814.0208333333333 379.5833333333334C812.8541666666666 374.3333333333334 810.6041666666666 367.625 806.0208333333333 361.9166666666668C797.6875 351.5 780.3124999999999 329.7916666666667 726.9791666666667 340.5000000000001C683.0208333333333 349.2916666666667 662.2708333333334 396.25 661.6041666666666 436.1666666666668C661.1458333333333 462.5 671.1874999999999 488.0416666666667 688.4375 504.5833333333333C704.6875 520.1666666666667 726.3958333333333 527.2916666666667 752.8958333333334 525.75C781.6458333333333 524.0416666666667 801.1458333333333 511.7083333333334 810.8541666666666 489.1250000000001C816.4791666666666 476.0416666666667 831.6874999999999 469.9166666666667 844.8125 475.5833333333334C857.8958333333334 481.2083333333334 863.9791666666665 496.4166666666667 858.3541666666666 509.5416666666667C848.1875 533.2083333333334 821.3958333333333 573.5 755.9374999999999 577.375C715.1458333333333 579.7083333333334 679.3541666666666 567.5 652.6875 541.875C625.2291666666666 515.5416666666667 609.2291666666666 475.7083333333334 609.8958333333333 435.2916666666667C610.9375 375.3333333333334 644.8125 304.2083333333333 716.8124999999999 289.7916666666667C724.4375 288.2916666666668 737.7291666666666 285.6666666666668 753.6875 285.6666666666668C781.5208333333333 285.6666666666668 817.6458333333333 293.6666666666667 846.3958333333334 329.6250000000001C866.9791666666666 355.375 866.8541666666666 386.0416666666668 866.7708333333333 389.4583333333334C866.2708333333334 412.1666666666667 847.3541666666666 430.875 824.6041666666666 431.1666666666668V431.1666666666668zM901.6041666666666 501.7916666666667H999.9791666666666V538.375H901.6041666666666V501.7916666666667zM501.0624999999999 555.2916666666667C445.8958333333333 583.375 398.395 562.375 383.4783333333334 554.1666666666667L387.77 598.9166666666667C389.1033333333334 612.3333333333334 402.1033333333333 624.1666666666667 415.6449999999999 624.1666666666667H542.9375C557.1875 624.1666666666667 568.7708333333333 635.75 568.7708333333333 650.0416666666667C568.7708333333333 664.25 557.1875 675.875 542.9375 675.875H415.6449999999999C375.77 675.875 340.2283333333334 643.5833333333333 336.3533333333334 603.9166666666667L331.4783333333333 553.7083333333334C328.3116666666667 520.9166666666667 345.1033333333333 507.125 352.52 502.7083333333333C359.895 498.2916666666667 380.0616666666667 490 407.1866666666666 508.1666666666667C408.4783333333334 509.0416666666667 439.7708333333334 528.5416666666667 477.6041666666666 509.2916666666667C498.9375 498.3750000000001 516.0625 475.3333333333334 522.2708333333333 449.0833333333334C526.6458333333333 430.6250000000001 527.5625 402.625 506.7708333333333 374.3333333333334C462.9791666666666 314.7916666666668 404.4783333333333 342.6666666666668 387.5616666666666 352.5833333333334C360.27 368.75 350.7283333333333 402.7083333333334 350.6866666666667 402.9166666666668C347.0616666666667 416.7083333333334 332.9783333333333 424.9583333333334 319.145 421.375C305.3533333333333 417.75 297.0616666666667 403.6666666666668 300.645 389.875C301.2283333333333 387.6666666666668 315.3533333333333 335.2083333333334 361.3116666666667 308.0833333333333C383.8533333333333 294.7916666666667 411.6449999999999 285.6666666666668 440.4375 285.6666666666668C477.9374999999999 285.6666666666668 517.1458333333333 301.2500000000001 548.4375 343.75C573.7708333333333 378.2083333333334 582.3125 419.875 572.5625 461.0416666666666C562.7708333333334 502.2500000000001 536.0625 537.4583333333333 501.0624999999999 555.2916666666667V555.2916666666667zM820.2291666666666 708.3333333333334H783.8124999999999L783.7708333333334 609.875H820.2291666666666V708.3333333333334zM265.895 345.5833333333334C249.3533333333333 345.5833333333334 235.9366666666667 332.1666666666668 235.9366666666667 315.5833333333335C235.9366666666667 299.0416666666668 249.3533333333333 285.6250000000001 265.895 285.6250000000001C282.4366666666667 285.6250000000001 295.8533333333333 299.0416666666668 295.8533333333333 315.5833333333335C295.8533333333333 332.1666666666668 282.4366666666667 345.5833333333334 265.895 345.5833333333334V345.5833333333334zM230.2283333333333 402.4583333333334H203.8533333333333C174.145 402.4583333333334 151.7279166666667 432.9583333333334 151.7279166666667 473.3333333333334V509.25L60.27 400.2916666666667H132.2283333333333C172.02 400.2916666666667 203.18625 375.125 203.18625 343V311.375C203.18625 297.1666666666668 191.6029166666667 285.6666666666668 177.43625 285.6666666666668C163.2695833333333 285.6666666666668 151.7279166666667 297.1666666666668 151.7279166666667 311.375V342.2083333333334C150.2279166666667 344.3750000000001 143.0616666666667 348.875 132.2283333333333 348.875H50.31125C18.6864583333333 348.875 7.103125 366.375 3.603125 373.9166666666668C0.1031245833333 381.4166666666668 -5.8552083333333 401.5416666666668 14.4364583333333 425.75L128.68625 561.75C143.1445833333333 579 156.93625 582.5833333333333 165.9779166666667 582.5833333333333C170.0195833333333 582.5833333333333 173.93625 581.9166666666667 177.68625 580.5416666666667C187.2279166666667 577.0833333333333 203.18625 566.5416666666667 203.18625 534.625V473.3333333333334C203.18625 463.2083333333334 205.9783333333333 456.6666666666667 207.6866666666667 453.9166666666667H230.2283333333333C244.4366666666667 453.9166666666667 255.9366666666667 442.3333333333334 255.9366666666667 428.1666666666668C255.9366666666667 414 244.4366666666667 402.4583333333334 230.2283333333333 402.4583333333334V402.4583333333334z" />
    <glyph glyph-name="5g"
      unicode="&#xEA02;"
      horiz-adv-x="1000" d="M799.5416666666666 505.6666666666667H916.6666666666666V548.9583333333334H799.5416666666666V505.6666666666667zM858.0416666666666 729.5833333333333L748.3749999999999 620.5833333333334L779.2916666666666 589.7916666666667L888.9999999999999 698.7916666666667L858.0416666666666 729.5833333333333zM702.75 749.9583333333334L659.3749999999999 750L659.3333333333333 633.5H702.7083333333333L702.75 749.9583333333334zM707.9166666666665 422.125L632.75 423.0416666666668H632.375C615.5416666666666 423.0416666666668 601.8333333333334 409.5833333333334 601.5833333333334 392.8333333333334C601.4583333333334 375.9583333333334 615.0416666666666 362.1250000000001 631.9999999999999 361.9166666666668L695.2916666666666 361.125C693.9583333333334 354.9583333333334 691.25 346.9583333333334 685.8333333333334 340.2083333333334C675.9166666666666 327.9166666666668 655.25 302.2500000000001 591.7083333333334 314.9166666666668C539.4166666666666 325.2916666666667 514.7083333333333 380.8333333333334 513.9166666666666 428.0833333333334C513.375 459.1666666666666 525.2916666666666 489.4166666666667 545.875 509C565.2083333333333 527.4166666666667 591.0416666666666 535.9166666666667 622.5833333333333 534.0416666666667C656.8333333333333 532.0416666666667 680 517.4583333333334 691.5833333333333 490.7083333333333C698.2499999999999 475.1666666666667 716.3333333333333 468.0416666666667 731.9583333333333 474.6666666666666C747.5416666666666 481.3333333333334 754.7916666666665 499.3333333333334 748.0833333333334 514.8333333333334C736 542.8333333333334 704.0416666666665 590.5 626.2083333333333 595.0416666666667C577.625 597.8333333333334 535.0416666666666 583.375 503.2916666666667 553.125C470.6249999999999 522 451.5833333333333 474.875 452.4166666666667 427.0416666666668C453.625 356.0833333333334 493.9166666666666 272 579.625 254.9166666666667C588.7083333333333 253.125 604.4999999999999 250 623.5833333333333 250C656.7083333333333 250 699.5833333333333 259.5000000000001 733.8333333333333 302.0416666666667C758.375 332.5 758.2083333333333 368.7916666666668 758.125 372.7916666666667C757.5 399.6666666666668 735 421.7916666666667 707.9166666666665 422.125V422.125zM407.9579166666667 457.5C419.5833333333333 408.7916666666668 409.3745833333333 359.5 379.2495833333334 318.75C341.9995833333334 268.4583333333335 295.3745833333333 250 250.7495833333334 250C216.41625 250 183.29125 260.875 156.5829166666667 276.5833333333335C101.8329166666667 308.625 85.04125 370.6666666666668 84.3329166666667 373.2916666666668C80.04125 389.6250000000001 89.8745833333333 406.2916666666667 106.3329166666667 410.5833333333334C122.79125 414.7916666666668 139.5829166666667 405.0416666666668 143.8745833333333 388.7083333333334C143.91625 388.4583333333334 155.29125 348.2916666666668 187.8329166666667 329.2500000000001C207.91625 317.4166666666667 277.4995833333333 284.4583333333335 329.66625 354.9583333333334C354.3745833333333 388.3333333333334 353.3329166666667 421.4583333333334 348.0829166666666 443.375C340.7079166666666 474.4166666666666 320.29125 501.6666666666667 294.91625 514.5416666666667C249.91625 537.2916666666667 212.66625 514.25 211.1245833333333 513.2916666666667C178.8329166666667 491.75 154.8745833333333 501.5 146.04125 506.7500000000001C137.2495833333333 511.9583333333334 117.2079166666667 528.3333333333334 120.9995833333333 567.125L126.8329166666667 626.4583333333334C131.41625 673.375 173.7495833333333 711.5416666666667 221.2079166666667 711.5416666666667H372.66625C389.66625 711.5416666666667 403.4579166666667 697.875 403.4579166666667 681C403.4579166666667 664.125 389.66625 650.4583333333334 372.66625 650.4583333333334H221.2079166666667C205.1245833333333 650.4583333333334 189.6245833333333 636.4583333333334 188.0829166666667 620.5416666666667L182.8745833333333 567.5833333333334C200.66625 577.3333333333334 257.2079166666667 602.1666666666667 322.8329166666666 568.9583333333333C364.4995833333333 547.9166666666667 396.3329166666667 506.2500000000001 407.9579166666667 457.5V457.5z" />
    <glyph glyph-name="8k"
      unicode="&#xEA03;"
      horiz-adv-x="1000" d="M799.5541666666666 234.3250000000001H916.6791666666666L734.9708333333332 542.4083333333333L904.4291666666666 745.6583333333333H782.3041666666667L601.3458333333333 523.075V745.6583333333333H501.5125V234.3250000000001H601.3458333333333V387.9916666666667L668.1791666666667 467.0333333333334L799.5541666666666 234.3250000000001zM403.6795833333333 604.2C403.6795833333333 549.6166666666667 372.8045833333333 515.8666666666668 346.22125 497.9083333333334C374.97125 479.2416666666667 410.84625 445.4083333333334 410.84625 382.9500000000001C410.84625 283.8250000000002 337.6375 229.9916666666667 247.1379166666667 229.9916666666667C155.8879166666667 229.9916666666667 83.34625 283.8250000000002 83.34625 382.9500000000001C83.34625 445.4083333333334 119.22125 479.2416666666667 147.2629166666667 497.9083333333334C121.3879166666667 515.8666666666668 89.8045833333333 549.6166666666667 89.8045833333333 604.2C89.8045833333333 693.95 161.6379166666667 749.9916666666667 247.1379166666667 749.9916666666667C331.8879166666667 749.9916666666667 403.6795833333333 693.95 403.6795833333333 604.2zM310.26125 601.325C310.26125 638.7 283.76125 665.95 247.13625 665.95C210.4695833333333 665.95 183.1779166666667 638.7 183.1779166666667 601.325C183.1779166666667 563.9916666666667 210.4695833333333 536.6583333333333 247.13625 536.6583333333333C283.76125 536.6583333333333 310.26125 563.9916666666667 310.26125 601.325zM176.7195833333333 384.4500000000001C176.7195833333333 344.9083333333333 207.5945833333333 314.0333333333333 247.13625 314.0333333333333C285.88625 314.0333333333333 317.4695833333334 344.9083333333333 317.4695833333334 384.4500000000001C317.4695833333334 423.9500000000001 285.88625 455.5333333333334 247.13625 455.5333333333334C207.5945833333333 455.5333333333334 176.7195833333333 423.9500000000001 176.7195833333333 384.4500000000001z" />
    <glyph glyph-name="a-la-carte"
      unicode="&#xEA04;"
      horiz-adv-x="1000" d="M750 418.7500000000001C750 537.7916666666667 678.5833333333334 627.0833333333334 500 627.0833333333334C321.4166666666667 627.0833333333334 250 537.7916666666667 250 418.7500000000001H750zM500 750.0416666666667V750H520.8333333333333L500 750.0416666666667zM875 377.0833333333334C875 354.0833333333334 856.3333333333333 335.4166666666668 833.3333333333333 335.4166666666668H750H250H166.6666666666667C143.6666666666667 335.4166666666668 125 354.0833333333334 125 377.0833333333334C125 400.0833333333334 143.6666666666667 418.7500000000001 166.6666666666667 418.7500000000001C166.6666666666667 629.8333333333333 332.5833333333333 707.375 491.0833333333333 710.1666666666667C472.5416666666666 714.3333333333334 458.3333333333333 730.2083333333334 458.3333333333333 750C458.3333333333333 772.9583333333334 477.0416666666666 791.6666666666667 500 791.6666666666667C522.9583333333333 791.6666666666667 541.6666666666666 772.9583333333334 541.6666666666666 750C541.6666666666666 730.2083333333334 527.4583333333334 714.3333333333334 508.9166666666666 710.1666666666667C667.4166666666666 707.375 833.3333333333333 629.8333333333333 833.3333333333333 418.7500000000001C856.3333333333333 418.7500000000001 875 400.0833333333334 875 377.0833333333334zM875 252.0833333333334C875 229.0833333333334 856.3333333333333 210.4166666666668 833.3333333333333 210.4166666666668H166.6666666666667C143.6666666666667 210.4166666666668 125 229.0833333333334 125 252.0833333333334C125 275.0833333333334 143.6666666666667 293.7500000000001 166.6666666666667 293.7500000000001H833.3333333333333C856.3333333333333 293.7500000000001 875 275.0833333333334 875 252.0833333333334z" />
    <glyph glyph-name="acessar-camera"
      unicode="&#xEA05;"
      horiz-adv-x="1000" d="M499.9958333333333 291.6666666666668V374.9583333333334L166.6629166666667 374.8333333333334L166.5379166666667 708.3333333333334L666.6625 708.5L666.7041666666667 541.6666666666667H749.9958333333333V708.5C749.9958333333333 754.3333333333334 712.6624999999999 791.6666666666667 666.8291666666667 791.6666666666667H166.5379166666667C120.6629166666667 791.6666666666667 83.3295833333333 754.3333333333334 83.3295833333333 708.5V374.8333333333334C83.3295833333333 328.9583333333334 120.6629166666667 291.6666666666668 166.5379166666667 291.6666666666668H499.9958333333333zM751.8291666666667 267.2500000000001L916.6625 432.0833333333334L857.7458333333333 491.0000000000001L692.9124999999999 326.1666666666667L606.1208333333333 413.0000000000001L547.2041666666667 354.0833333333334L692.9124999999999 208.3333333333334L695.3708333333333 210.7916666666668L751.8291666666667 267.2500000000001zM624.9958333333333 583.3333333333334H499.9958333333333V666.6666666666667H624.9958333333333V583.3333333333334zM333.3295833333333 416.6666666666668C264.4129166666667 416.6666666666668 208.3295833333333 472.75 208.3295833333333 541.6666666666667C208.3295833333333 610.5833333333334 264.4129166666667 666.6666666666667 333.3295833333333 666.6666666666667C402.24625 666.6666666666667 458.3291666666667 610.5833333333334 458.3291666666667 541.6666666666667C458.3291666666667 472.75 402.24625 416.6666666666668 333.3295833333333 416.6666666666668zM333.3295833333333 500C356.3295833333333 500 374.99625 518.7083333333334 374.99625 541.6666666666667C374.99625 564.6666666666667 356.3295833333333 583.3333333333334 333.3295833333333 583.3333333333334C310.37125 583.3333333333334 291.6629166666667 564.6666666666667 291.6629166666667 541.6666666666667C291.6629166666667 518.7083333333334 310.37125 500 333.3295833333333 500z" />
    <glyph glyph-name="acessibilidade"
      unicode="&#xEA06;"
      horiz-adv-x="1000" d="M549.75 531.375V428.0833333333334L575.5833333333333 299.0416666666668L527.6666666666666 291.6666666666668L501.8333333333333 424.4166666666668L472.3333333333333 291.6666666666668L424.375 299.0416666666668L450.1666666666667 428.0833333333334V531.375L339.5833333333333 553.4583333333333L350.625 601.4166666666667C350.625 601.4166666666667 439.125 579.25 501.8333333333333 579.25C564.5 579.25 649.2916666666666 601.4166666666667 649.2916666666666 601.4166666666667L660.375 553.4583333333333L549.75 531.375zM448.3333333333333 656.7083333333333C448.3333333333333 685.2083333333334 471.4583333333333 708.3333333333334 499.9583333333333 708.3333333333334C528.4999999999999 708.3333333333334 551.5833333333333 685.2083333333334 551.5833333333333 656.7083333333333C551.5833333333333 628.2083333333334 528.4999999999999 605.125 499.9583333333333 605.125C471.4583333333333 605.125 448.3333333333333 628.2083333333334 448.3333333333333 656.7083333333333zM500 166.6666666666668C316.2083333333333 166.6666666666668 166.6666666666667 316.2083333333334 166.6666666666667 500C166.6666666666667 683.7916666666667 316.2083333333333 833.3333333333334 500 833.3333333333334C683.7916666666666 833.3333333333334 833.3333333333333 683.7916666666667 833.3333333333333 500C833.3333333333333 316.2083333333334 683.7916666666666 166.6666666666668 500 166.6666666666668zM500 916.6666666666666C269.875 916.6666666666666 83.3333333333333 730.125 83.3333333333333 500C83.3333333333333 269.9166666666668 269.875 83.3333333333334 500 83.3333333333334C730.0833333333333 83.3333333333334 916.6666666666666 269.9166666666668 916.6666666666666 500C916.6666666666666 730.125 730.0833333333333 916.6666666666666 500 916.6666666666666z" />
    <glyph glyph-name="acompanhar-solicitacao"
      unicode="&#xEA07;"
      horiz-adv-x="1000" d="M500.025 333.3333333333334C408.1083333333334 333.3333333333334 333.3583333333334 408.0833333333334 333.3583333333334 500C333.3583333333334 591.9166666666667 408.1083333333334 666.6666666666667 500.025 666.6666666666667C577.4416666666666 666.6666666666667 642.1083333333333 613.375 660.7333333333332 541.6666666666667H571.775C557.3583333333333 566.5 530.775 583.3333333333334 499.9833333333333 583.3333333333334C453.9833333333333 583.3333333333334 416.6499999999999 546 416.6499999999999 500C416.6499999999999 454.0000000000001 453.9833333333333 416.6666666666668 499.9833333333333 416.6666666666668C530.775 416.6666666666668 557.3583333333333 433.5 571.775 458.3333333333334H660.7333333333332C642.1083333333333 386.625 577.4416666666666 333.3333333333334 500.025 333.3333333333334zM916.65 500C916.65 729.7916666666667 729.775 916.6666666666666 499.9833333333333 916.6666666666666C270.2333333333333 916.6666666666666 83.3166666666667 729.7916666666667 83.3166666666667 500C83.3166666666667 270.2500000000001 270.2333333333333 83.3333333333334 499.9833333333333 83.3333333333334V166.6666666666668C316.1916666666666 166.6666666666668 166.65 316.2083333333334 166.65 500C166.65 683.7916666666667 316.1916666666666 833.3333333333334 499.9833333333333 833.3333333333334C669.65 833.3333333333334 809.8583333333332 705.8333333333334 830.4416666666666 541.6666666666667H746.2333333333333C726.3166666666666 659.7083333333334 623.65 750 500.025 750C362.15 750 250.025 637.875 250.025 500C250.025 362.1250000000001 362.15 250 500.025 250C623.65 250 726.3166666666666 340.2916666666668 746.2333333333333 458.3333333333334H916.65V494.2500000000001C916.65 496.2916666666667 915.775 498.0416666666667 915.525 500H916.65z" />
    <glyph glyph-name="adesao"
      unicode="&#xEA08;"
      horiz-adv-x="1000" d="M250.0204166666667 666.6666666666667C327.3954166666667 666.6666666666667 392.10375 613.375 410.72875 541.6666666666667H916.6874999999998V458.3333333333334H833.3541666666665V333.3333333333334H750.0208333333333V458.3333333333334H410.72875C392.10375 386.625 327.3954166666667 333.3333333333334 250.0204166666667 333.3333333333334C158.10375 333.3333333333334 83.35375 408.0833333333334 83.35375 500C83.35375 591.875 158.10375 666.6666666666667 250.0204166666667 666.6666666666667zM166.6870833333333 500C166.6870833333333 454.0416666666667 204.0204166666667 416.6666666666668 250.0204166666667 416.6666666666668C295.97875 416.6666666666668 333.35375 454.0416666666667 333.35375 500C333.35375 545.9583333333334 295.97875 583.3333333333334 250.0204166666667 583.3333333333334C204.0204166666667 583.3333333333334 166.6870833333333 545.9583333333334 166.6870833333333 500z" />
    <glyph glyph-name="adicionar-box"
      unicode="&#xEA09;"
      horiz-adv-x="1000" d="M541.6666666666666 541.6666666666667H708.3333333333333V458.3333333333334H541.6666666666666V291.6666666666668H458.3333333333333V458.3333333333334H291.6666666666667V541.6666666666667H458.3333333333333V708.3333333333334H541.6666666666666V541.6666666666667zM791.6666666666666 250.0833333333334C791.6666666666666 227.0416666666668 772.9583333333333 208.3333333333334 749.9166666666666 208.3333333333334H250.0833333333333C227.0833333333333 208.3333333333334 208.3333333333333 227.0416666666668 208.3333333333333 250.0833333333334V749.9166666666667C208.3333333333333 772.9166666666667 227.0833333333333 791.6666666666667 250.0833333333333 791.6666666666667H749.9166666666666C772.9583333333333 791.6666666666667 791.6666666666666 772.9166666666667 791.6666666666666 749.9166666666667V250.0833333333334zM749.9166666666666 875H250.0833333333333C181.125 875 125 818.875 125 749.9166666666667V250.0833333333334C125 181.1250000000001 181.125 125 250.0833333333333 125H749.9166666666666C818.8749999999999 125 875 181.1250000000001 875 250.0833333333334V749.9166666666667C875 818.875 818.8749999999999 875 749.9166666666666 875z" />
    <glyph glyph-name="adicionar-circulo"
      unicode="&#xEA0A;"
      horiz-adv-x="1000" d="M833.3333333333333 500C833.3333333333333 683.7916666666667 683.7916666666666 833.3333333333334 500 833.3333333333334C316.2083333333333 833.3333333333334 166.6666666666667 683.7916666666667 166.6666666666667 500C166.6666666666667 316.2083333333334 316.2083333333333 166.6666666666668 500 166.6666666666668C683.7916666666666 166.6666666666668 833.3333333333333 316.2083333333334 833.3333333333333 500zM916.6666666666666 500C916.6666666666666 270.2500000000001 729.7499999999999 83.3333333333334 500 83.3333333333334C270.25 83.3333333333334 83.3333333333333 270.2500000000001 83.3333333333333 500C83.3333333333333 729.75 270.25 916.6666666666666 500 916.6666666666666C729.7499999999999 916.6666666666666 916.6666666666666 729.75 916.6666666666666 500zM541.6666666666666 541.6666666666667H708.3333333333333V458.3333333333334H541.6666666666666V291.6666666666668H458.3333333333333V458.3333333333334H291.6666666666667V541.6666666666667H458.3333333333333V708.3333333333334H541.6666666666666V541.6666666666667z" />
    <glyph glyph-name="adicionar-coluna"
      unicode="&#xEA0B;"
      horiz-adv-x="1000" d="M875 125H625L625 875L875 875V125zM791.6666666666666 791.6666666666667H708.3333333333333V208.3333333333334H791.6666666666666V791.6666666666667zM208.3333333333333 875H125V791.6666666666667H208.3333333333333V875zM125 708.3333333333334H208.3333333333333V625H125V708.3333333333334zM208.3333333333333 541.6666666666667H125V458.3333333333334H208.3333333333333V541.6666666666667zM125 375H208.3333333333333V291.6666666666668H125V375zM208.3333333333333 208.3333333333334H125V125H208.3333333333333V208.3333333333334zM291.6666666666667 875H375V791.6666666666667H291.6666666666667V875zM375 708.3333333333334H291.6666666666667V625H375V708.3333333333334zM291.6666666666667 541.6666666666667H375V458.3333333333334H291.6666666666667V541.6666666666667zM375 375H291.6666666666667V291.6666666666668H375V375zM291.6666666666667 208.3333333333334H375V125H291.6666666666667V208.3333333333334zM541.6666666666666 875H458.3333333333333V791.6666666666667H541.6666666666666V875zM458.3333333333333 708.3333333333334H541.6666666666666V625H458.3333333333333V708.3333333333334zM541.6666666666666 541.6666666666667H458.3333333333333V458.3333333333334H541.6666666666666V541.6666666666667zM458.3333333333333 375H541.6666666666666V291.6666666666668H458.3333333333333V375zM541.6666666666666 208.3333333333334H458.3333333333333V125H541.6666666666666V208.3333333333334z" />
    <glyph glyph-name="adicionar-linha"
      unicode="&#xEA0C;"
      horiz-adv-x="1000" d="M125 875H208.3333333333333H791.6666666666666H875V791.6666666666667V708.3333333333334V625H791.6666666666666H208.3333333333333H125V708.3333333333334V791.6666666666667V875zM791.6666666666666 791.6666666666667H208.3333333333333V708.3333333333334H791.6666666666666V791.6666666666667zM875 541.6666666666667V458.3333333333334L791.6666666666666 458.3333333333334V541.6666666666667L875 541.6666666666667zM708.3333333333333 541.6666666666667V458.3333333333334H625V541.6666666666667H708.3333333333333zM541.6666666666666 541.6666666666667V458.3333333333334L458.3333333333333 458.3333333333334V541.6666666666667L541.6666666666666 541.6666666666667zM375 541.6666666666667V458.3333333333334H291.6666666666667L291.6666666666667 541.6666666666667H375zM208.3333333333333 541.6666666666667V458.3333333333334H125V541.6666666666667H208.3333333333333zM875 375V291.6666666666668H791.6666666666666V375L875 375zM708.3333333333333 375V291.6666666666668H625V375H708.3333333333333zM541.6666666666666 375V291.6666666666668H458.3333333333333V375L541.6666666666666 375zM375 375L375 291.6666666666668H291.6666666666667L291.6666666666667 375H375zM208.3333333333333 375L208.3333333333333 291.6666666666668L125 291.6666666666668V375L208.3333333333333 375zM708.3333333333333 208.3333333333334V125H625V208.3333333333334H708.3333333333333zM541.6666666666666 208.3333333333334V125H458.3333333333333V208.3333333333334H541.6666666666666zM375 208.3333333333334L375 125H291.6666666666667L291.6666666666667 208.3333333333334H375zM208.3333333333333 208.3333333333334L208.3333333333333 125H125V208.3333333333334H208.3333333333333zM875 208.3333333333334V125H791.6666666666666V208.3333333333334H875z" />
    <glyph glyph-name="aeronaves-autonomas"
      unicode="&#xEA0D;"
      horiz-adv-x="1000" d="M333.3258333333333 796.7291666666667C393.2425 869.9791666666667 483.2 916.6875 583.6583333333333 916.6875C683.7833333333332 916.6875 773.4499999999999 870.2708333333334 833.3249999999999 797.4791666666667L775.3666666666666 738.2291666666667C730.4916666666667 796.0208333333334 661.2833333333333 833.3125 583.6583333333333 833.3125C505.6583333333333 833.3125 436.2 795.7291666666667 391.3675 737.4375L333.3258333333333 796.7291666666667zM583.6583333333333 791.6458333333334C516.8666666666667 791.6458333333334 457.9916666666666 758.1875 420.825 707.3958333333334L479.2833333333333 647.6041666666667C500.7416666666666 683.8125 539.3249999999999 708.3125 583.6583333333333 708.3125C627.6583333333333 708.3125 665.9916666666667 684.2291666666667 687.5333333333334 648.4791666666667L745.9083333333333 708.1041666666667C708.6166666666666 758.5208333333334 650.075 791.6458333333334 583.6583333333333 791.6458333333334zM458.325 583.3541666666667C458.325 606.3541666666667 439.7 625.0208333333334 416.6591666666667 625.0208333333334C393.6175 625.0208333333334 374.9925 606.3541666666667 374.9925 583.3541666666667V458.3541666666667L166.6591666666667 333.3541666666668V250.0208333333334L374.9925 333.3541666666668V208.3541666666666L333.3258333333333 125.0208333333334V83.3541666666666L416.6591666666667 125.0208333333334L499.9916666666667 83.3541666666666V125.0208333333334L458.325 208.3541666666666V333.3541666666668L666.6583333333333 250.0208333333334V333.3541666666668L458.325 458.3541666666667V583.3541666666667zM657.6166666666667 617.9375L582.9499999999999 541.6875L509.2 617.0625C521.9083333333333 646.2291666666666 550.4083333333333 666.6041666666667 583.6583333333333 666.6041666666667C616.5333333333333 666.6041666666667 644.7416666666667 646.6458333333334 657.6166666666667 617.9375z" />
    <glyph glyph-name="agente-autorizado"
      unicode="&#xEA0E;"
      horiz-adv-x="1000" d="M499.975 833.3208333333333C591.8916666666667 833.3208333333333 666.6416666666667 758.5708333333333 666.6416666666667 666.6958333333334C666.6416666666667 626.3625 651.6416666666667 589.8625000000001 627.7666666666667 561.0291666666667L685.1416666666667 486.2791666666667C712.1833333333334 497.7791666666667 741.725 502.5291666666667 771.7249999999999 498.6125C815.8916666666665 492.7791666666667 855.1 470.1125000000001 882.1833333333333 434.8208333333335C909.2666666666667 399.4875000000001 921.0166666666667 355.7375 915.1833333333332 311.5708333333334C909.3916666666667 267.4458333333335 886.725 228.1958333333335 851.3916666666665 201.1125C821.2249999999999 177.9458333333335 785.5583333333333 166.7791666666667 750.1416666666665 166.7791666666667C700.0583333333333 166.7791666666667 650.5166666666667 189.1958333333335 617.7666666666667 231.9041666666667C570.6416666666667 293.3208333333334 573.5166666666667 377.1125000000001 619.0583333333333 435.5291666666667L560.5166666666667 511.8208333333333C541.725 504.4458333333334 521.3499999999999 500.0291666666667 499.975 500.0291666666667C478.5583333333333 500.0291666666667 458.2666666666667 504.4458333333334 439.4333333333334 511.8208333333333L380.8916666666667 435.5291666666667C426.4333333333334 377.1125000000001 429.3916666666667 293.2791666666667 382.225 231.8208333333335C349.4333333333334 189.1125 299.9333333333334 166.6541666666667 249.85 166.6541666666667C214.4333333333333 166.6541666666667 178.7666666666667 177.8625 148.5583333333333 201.0708333333335C113.2666666666667 228.1125 90.6 267.3625 84.8083333333333 311.5291666666667C78.975 355.6958333333334 90.6833333333333 399.4458333333335 117.8083333333333 434.7791666666667C164.975 496.2375000000001 246.6 515.1125 314.8083333333333 486.2791666666667L372.1833333333333 561.0291666666667C348.2666666666667 589.8625000000001 333.35 626.3625 333.35 666.6958333333334C333.35 758.5708333333333 408.0583333333334 833.3208333333333 499.975 833.3208333333333zM250.1 416.6541666666667C225.1 416.6541666666667 200.3083333333333 405.4458333333335 183.9333333333333 384.0708333333335C170.35 366.4041666666667 164.5166666666667 344.4875000000001 167.3916666666667 322.4041666666667C170.3083333333333 300.3625000000001 181.6416666666667 280.7375000000001 199.3083333333333 267.1958333333335C216.975 253.6125000000001 238.8083333333333 247.7375 260.8916666666667 250.6958333333334C283.0166666666667 253.5708333333334 302.6 264.9041666666668 316.1416666666667 282.5291666666667C344.1 319.0291666666667 337.1833333333333 371.4458333333334 300.7666666666667 399.4458333333335C285.6833333333334 410.9875000000001 267.8083333333333 416.6541666666667 250.1 416.6541666666667zM749.8083333333333 416.6958333333334C731.5583333333334 416.6958333333334 713.9333333333333 410.7791666666667 699.225 399.4875000000001C681.5583333333333 385.9458333333335 670.2249999999999 366.2791666666667 667.35 344.1958333333334C664.4333333333333 322.1541666666667 670.2666666666667 300.2791666666668 683.85 282.6125C697.3916666666667 264.9458333333334 717.0583333333333 253.6541666666668 739.0999999999999 250.7375000000001C761.1833333333333 247.9041666666667 783.0166666666667 253.7375000000001 800.6833333333333 267.2375C818.3499999999999 280.7791666666668 829.6833333333334 300.4041666666668 832.5583333333333 322.4458333333335C835.475 344.5291666666667 829.6416666666667 366.4458333333335 816.0583333333333 384.1125000000001C802.5166666666667 401.7791666666667 782.9333333333334 413.0708333333335 760.85 415.9875000000001C757.1416666666665 416.4458333333334 753.475 416.6958333333334 749.8083333333333 416.6958333333334zM499.975 750.0291666666667C454.0166666666667 750.0291666666667 416.6833333333334 712.6541666666667 416.6833333333334 666.6958333333334C416.6833333333334 620.7375 454.0166666666667 583.3625 499.975 583.3625C545.8916666666667 583.3625 583.3083333333333 620.7375 583.3083333333333 666.6958333333334C583.3083333333333 712.6541666666667 545.8916666666667 750.0291666666667 499.975 750.0291666666667z" />
    <glyph glyph-name="ajustes"
      unicode="&#xEA0F;"
      horiz-adv-x="1000" d="M625 875V791.6666666666667V708.3333333333334V625H708.375V708.3333333333334H875V791.6666666666667H708.375V875H625zM125 708.3333333333334H541.6666666666666V791.6666666666667H125V708.3333333333334zM291.6666666666667 625V541.6666666666667H125V458.3333333333334H291.6666666666667V375H375.0416666666667V458.3333333333334V541.6666666666667V625H291.6666666666667zM458.3333333333333 458.3333333333334H875V541.6666666666667H458.3333333333333V458.3333333333334zM458.3333333333333 375V291.6666666666668V208.3333333333334V125H541.6666666666666V208.3333333333334H875V291.6666666666668H541.6666666666666V375H458.3333333333333zM125 208.3333333333334H375V291.6666666666668H125V208.3333333333334z" />
    <glyph glyph-name="alarme"
      unicode="&#xEA10;"
      horiz-adv-x="1000" d="M799.8749999999999 668.75L652.5416666666666 816.0833333333334L711.5 875L858.7916666666666 727.7083333333334L799.8749999999999 668.75zM183.9583333333333 668.75L125 727.7083333333334L272.3333333333333 875L331.25 816.0833333333334L183.9583333333333 668.75zM533.5416666666666 466.4583333333334H700.2083333333333V383.125H450.2083333333333V424.7916666666668V466.4583333333334V633.125H533.5416666666666V466.4583333333334zM491.8749999999999 174.7916666666668C354.0416666666667 174.7916666666668 241.875 286.9166666666667 241.875 424.7916666666668C241.875 562.625 354.0416666666667 674.7916666666667 491.8749999999999 674.7916666666667C629.75 674.7916666666667 741.875 562.625 741.875 424.7916666666668C741.875 286.9166666666667 629.75 174.7916666666668 491.8749999999999 174.7916666666668zM491.8749999999999 758.125C308.0833333333333 758.125 158.5416666666667 608.5833333333334 158.5416666666667 424.7916666666668C158.5416666666667 240.9583333333335 308.0833333333333 91.4583333333334 491.8749999999999 91.4583333333334C675.7083333333333 91.4583333333334 825.2083333333333 240.9583333333335 825.2083333333333 424.7916666666668C825.2083333333333 608.5833333333334 675.7083333333333 758.125 491.8749999999999 758.125z" />
    <glyph glyph-name="alerta"
      unicode="&#xEA11;"
      horiz-adv-x="1000" d="M458.3333333333333 250H541.6666666666666V333.3333333333334H458.3333333333333V250zM458.3333333333333 375H541.6666666666666V750H458.3333333333333V375zM500 166.6666666666668C316.2083333333333 166.6666666666668 166.6666666666667 316.2083333333334 166.6666666666667 500C166.6666666666667 683.7916666666667 316.2083333333333 833.3333333333334 500 833.3333333333334C683.7916666666666 833.3333333333334 833.3333333333333 683.7916666666667 833.3333333333333 500C833.3333333333333 316.2083333333334 683.7916666666666 166.6666666666668 500 166.6666666666668zM500 916.6666666666666C270.25 916.6666666666666 83.3333333333333 729.75 83.3333333333333 500C83.3333333333333 270.2500000000001 270.25 83.3333333333334 500 83.3333333333334C729.7499999999999 83.3333333333334 916.6666666666666 270.2500000000001 916.6666666666666 500C916.6666666666666 729.75 729.7499999999999 916.6666666666666 500 916.6666666666666z" />
    <glyph glyph-name="alexa"
      unicode="&#xEA12;"
      horiz-adv-x="1000" d="M498.2624999999999 916.6666666666666C392.8166666666667 915.7941666666666 291.5904166666667 875.3041666666667 214.8358333333333 803.2970833333334C138.0816666666667 731.2904166666667 91.4604166666667 633.0775000000001 84.2995833333333 528.3083333333334C77.1391666666667 423.5375 109.9675 319.9416666666667 176.21625 238.2416666666667C242.4654166666667 156.5416666666668 337.2491666666667 102.7666666666668 441.6041666666667 87.675V172.3083333333334C441.6041666666667 196.1791666666668 426.35 217.8833333333333 404.5575 224.3916666666668C353.29125 241.7291666666668 307.875 272.9208333333334 273.3808333333334 314.475C238.8870833333333 356.0333333333334 216.6741666666667 406.3250000000001 209.2233333333333 459.7291666666667C201.7725 513.1333333333334 209.3775 567.5458333333333 231.1883333333333 616.8945833333333C252.9991666666667 666.2429166666666 288.1575 708.5804166666667 332.7354166666667 739.1791666666667C377.31375 769.7779166666667 429.5541666666667 787.4320833333334 483.6291666666667 790.1700000000001C537.6999999999999 792.9079166666667 591.4708333333333 780.6216666666667 638.9375 754.68375C686.4 728.7458333333334 725.6874999999999 690.1775 752.4124999999999 643.2870833333334C779.1375 596.39625 792.2458333333333 543.0291666666667 790.275 489.15V486.9791666666667C790.3375 483.3625000000001 790.3375 479.7458333333334 790.275 476.1291666666667V473.9583333333334C790.2999999999998 471.7875 790.2999999999998 469.6166666666667 790.275 467.45C790.3166666666666 464.5541666666667 790.3166666666666 461.6625 790.275 458.7666666666668V454.4291666666667C751.0500000000001 220.0541666666668 443.7833333333333 87.675 441.6041666666667 87.675C460.3708333333333 84.9625000000001 479.3 83.5125000000001 498.2624999999999 83.3333333333334C609.2291666666666 83.3333333333334 715.6541666666666 127.2333333333334 794.1208333333334 205.3708333333333C872.5833333333333 283.5125000000001 916.6666666666666 389.4916666666667 916.6666666666666 500C916.6666666666666 610.5070833333334 872.5833333333333 716.4875 794.1208333333334 794.6279166666667C715.6541666666666 872.7679166666667 609.2291666666666 916.6666666666666 498.2624999999999 916.6666666666666z" />
    <glyph glyph-name="alinhamento-central"
      unicode="&#xEA13;"
      horiz-adv-x="1000" d="M750 135.4166666666668V197.9166666666668C750 203.6666666666668 745.3333333333334 208.3333333333334 739.5833333333333 208.3333333333334H260.4166666666667C254.6666666666667 208.3333333333334 250 203.6666666666668 250 197.9166666666668V135.4166666666668C250 129.6666666666666 254.6666666666667 125 260.4166666666667 125H739.5833333333333C745.3333333333334 125 750 129.6666666666666 750 135.4166666666668zM875 302.0833333333334V364.5833333333334C875 370.3333333333334 870.3333333333334 375 864.5833333333333 375H135.4166666666667C129.6666666666667 375 125 370.3333333333334 125 364.5833333333334V302.0833333333334C125 296.3333333333333 129.6666666666667 291.6666666666668 135.4166666666667 291.6666666666668H864.5833333333333C870.3333333333334 291.6666666666668 875 296.3333333333333 875 302.0833333333334zM875 471.0833333333334V528.9166666666667C875 535.9583333333333 869.2916666666666 541.6666666666667 862.2499999999999 541.6666666666667H137.75C130.7083333333333 541.6666666666667 125 535.9583333333333 125 528.9166666666667V471.0833333333334C125 464.0416666666667 130.7083333333333 458.3333333333334 137.75 458.3333333333334H862.2499999999999C869.2916666666666 458.3333333333334 875 464.0416666666667 875 471.0833333333334zM875 635.4166666666667V697.9166666666667C875 703.6666666666667 870.3333333333334 708.3333333333334 864.5833333333333 708.3333333333334H135.4166666666667C129.6666666666667 708.3333333333334 125 703.6666666666667 125 697.9166666666667V635.4166666666667C125 629.6666666666667 129.6666666666667 625 135.4166666666667 625H864.5833333333333C870.3333333333334 625 875 629.6666666666667 875 635.4166666666667zM862.2499999999999 791.6666666666667H137.75C130.7083333333333 791.6666666666667 125 797.375 125 804.4166666666667V862.25C125 869.2916666666667 130.7083333333333 875 137.75 875H862.2499999999999C869.2916666666666 875 875 869.2916666666667 875 862.25V804.4166666666667C875 797.375 869.2916666666666 791.6666666666667 862.2499999999999 791.6666666666667z" />
    <glyph glyph-name="alinhamento-direita"
      unicode="&#xEA14;"
      horiz-adv-x="1000" d="M875 135.4166666666668V197.9166666666668C875 203.6666666666668 870.3333333333334 208.3333333333334 864.5833333333333 208.3333333333334H385.4166666666667C379.6666666666667 208.3333333333334 375 203.6666666666668 375 197.9166666666668V135.4166666666668C375 129.6666666666666 379.6666666666667 125 385.4166666666667 125H864.5833333333333C870.3333333333334 125 875 129.6666666666666 875 135.4166666666668zM875 302.0833333333334V364.5833333333334C875 370.3333333333334 870.3333333333334 375 864.5833333333333 375H135.4166666666667C129.6666666666667 375 125 370.3333333333334 125 364.5833333333334V302.0833333333334C125 296.3333333333333 129.6666666666667 291.6666666666668 135.4166666666667 291.6666666666668H864.5833333333333C870.3333333333334 291.6666666666668 875 296.3333333333333 875 302.0833333333334zM875 468.75V531.25C875 537 870.3333333333334 541.6666666666667 864.5833333333333 541.6666666666667H385.4166666666667C379.6666666666667 541.6666666666667 375 537 375 531.25V468.75C375 463 379.6666666666667 458.3333333333334 385.4166666666667 458.3333333333334H864.5833333333333C870.3333333333334 458.3333333333334 875 463 875 468.75zM875 635.4166666666667V697.9166666666667C875 703.6666666666667 870.3333333333334 708.3333333333334 864.5833333333333 708.3333333333334H135.4166666666667C129.6666666666667 708.3333333333334 125 703.6666666666667 125 697.9166666666667V635.4166666666667C125 629.6666666666667 129.6666666666667 625 135.4166666666667 625H864.5833333333333C870.3333333333334 625 875 629.6666666666667 875 635.4166666666667zM864.5833333333333 791.6666666666667H385.4166666666667C379.6666666666667 791.6666666666667 375 796.3333333333334 375 802.0833333333334V864.5833333333334C375 870.3333333333334 379.6666666666667 875 385.4166666666667 875H864.5833333333333C870.3333333333334 875 875 870.3333333333334 875 864.5833333333334V802.0833333333334C875 796.3333333333334 870.3333333333334 791.6666666666667 864.5833333333333 791.6666666666667z" />
    <glyph glyph-name="alinhamento-esquerda"
      unicode="&#xEA15;"
      horiz-adv-x="1000" d="M625 135.4166666666668V197.9166666666668C625 203.6666666666668 620.3333333333333 208.3333333333334 614.5833333333333 208.3333333333334H135.4166666666667C129.6666666666667 208.3333333333334 125 203.6666666666668 125 197.9166666666668V135.4166666666668C125 129.6666666666666 129.6666666666667 125 135.4166666666667 125H614.5833333333333C620.3333333333333 125 625 129.6666666666666 625 135.4166666666668zM875 302.0833333333334V364.5833333333334C875 370.3333333333334 870.3333333333334 375 864.5833333333333 375H135.4166666666667C129.6666666666667 375 125 370.3333333333334 125 364.5833333333334V302.0833333333334C125 296.3333333333333 129.6666666666667 291.6666666666668 135.4166666666667 291.6666666666668H864.5833333333333C870.3333333333334 291.6666666666668 875 296.3333333333333 875 302.0833333333334zM625 468.75V531.25C625 537 620.3333333333333 541.6666666666667 614.5833333333333 541.6666666666667H135.4166666666667C129.6666666666667 541.6666666666667 125 537 125 531.25V468.75C125 463 129.6666666666667 458.3333333333334 135.4166666666667 458.3333333333334H614.5833333333333C620.3333333333333 458.3333333333334 625 463 625 468.75zM875 635.4166666666667V697.9166666666667C875 703.6666666666667 870.3333333333334 708.3333333333334 864.5833333333333 708.3333333333334H135.4166666666667C129.6666666666667 708.3333333333334 125 703.6666666666667 125 697.9166666666667V635.4166666666667C125 629.6666666666667 129.6666666666667 625 135.4166666666667 625H864.5833333333333C870.3333333333334 625 875 629.6666666666667 875 635.4166666666667zM614.5833333333333 791.6666666666667H135.4166666666667C129.6666666666667 791.6666666666667 125 796.3333333333334 125 802.0833333333334V864.5833333333334C125 870.3333333333334 129.6666666666667 875 135.4166666666667 875H614.5833333333333C620.3333333333333 875 625 870.3333333333334 625 864.5833333333334V802.0833333333334C625 796.3333333333334 620.3333333333333 791.6666666666667 614.5833333333333 791.6666666666667z" />
    <glyph glyph-name="alinhamento-horizontal-centralizado"
      unicode="&#xEA16;"
      horiz-adv-x="1000" d="M458.3333333333333 864.5833333333334C458.3333333333333 870.3362500000001 462.9958333333333 875 468.75 875H531.25C537.0041666666666 875 541.6666666666666 870.3362500000001 541.6666666666666 864.5833333333334V791.6666666666667H687.5C699.0041666666666 791.6666666666667 708.3333333333333 782.3391666666666 708.3333333333333 770.8333333333334V562.5C708.3333333333333 550.9958333333334 699.0041666666666 541.6666666666667 687.5 541.6666666666667H541.6666666666666V458.3333333333334H770.8333333333333C782.3375 458.3333333333334 791.6666666666666 449.0041666666667 791.6666666666666 437.5V229.1666666666668C791.6666666666666 217.6625 782.3375 208.3333333333334 770.8333333333333 208.3333333333334H541.6666666666666V135.4166666666668C541.6666666666666 129.6625 537.0041666666666 125 531.25 125H468.75C462.9958333333333 125 458.3333333333333 129.6625 458.3333333333333 135.4166666666668V208.3333333333334H229.1666666666667C217.6608333333333 208.3333333333334 208.3333333333333 217.6625 208.3333333333333 229.1666666666668V437.5C208.3333333333333 449.0041666666667 217.6608333333333 458.3333333333334 229.1666666666667 458.3333333333334H458.3333333333333V541.6666666666667H312.5C300.9941666666667 541.6666666666667 291.6666666666667 550.9958333333334 291.6666666666667 562.5V770.8333333333334C291.6666666666667 782.3391666666666 300.9941666666667 791.6666666666667 312.5 791.6666666666667H458.3333333333333V864.5833333333334zM625 708.3333333333334H375V625H625V708.3333333333334zM708.3333333333333 375H291.6666666666667V291.6666666666668H708.3333333333333V375z" />
    <glyph glyph-name="alinhamento-horizontal-direita"
      unicode="&#xEA17;"
      horiz-adv-x="1000" d="M791.6666666666666 864.5833333333334C791.6666666666666 870.3362500000001 796.3291666666665 875 802.0833333333333 875H864.5833333333333C870.3375 875 875 870.3362500000001 875 864.5833333333334V135.4166666666668C875 129.6625 870.3375 125 864.5833333333333 125H802.0833333333333C796.3291666666665 125 791.6666666666666 129.6625 791.6666666666666 135.4166666666668V864.5833333333334zM125 437.5C125 449.0041666666667 134.3275 458.3333333333334 145.8333333333333 458.3333333333334H729.1666666666666C740.6708333333332 458.3333333333334 750 449.0041666666667 750 437.5V229.1666666666668C750 217.6625 740.6708333333332 208.3333333333334 729.1666666666666 208.3333333333334H145.8333333333333C134.3275 208.3333333333334 125 217.6625 125 229.1666666666668V437.5zM666.6666666666666 375H208.3333333333333V291.6666666666668H666.6666666666666V375zM354.1666666666667 791.6666666666667C342.6608333333333 791.6666666666667 333.3333333333333 782.3391666666666 333.3333333333333 770.8333333333334V562.5C333.3333333333333 550.9958333333334 342.6608333333333 541.6666666666667 354.1666666666667 541.6666666666667H729.1666666666666C740.6708333333332 541.6666666666667 750 550.9958333333334 750 562.5V770.8333333333334C750 782.3391666666666 740.6708333333332 791.6666666666667 729.1666666666666 791.6666666666667H354.1666666666667zM416.6666666666667 708.3333333333334H666.6666666666666V625H416.6666666666667V708.3333333333334z" />
    <glyph glyph-name="alinhamento-horizontal-esquerda"
      unicode="&#xEA18;"
      horiz-adv-x="1000" d="M208.3333333333333 864.5833333333334C208.3333333333333 870.3362500000001 203.6695833333333 875 197.9166666666667 875H135.4166666666667C129.66375 875 125 870.3362500000001 125 864.5833333333334V135.4166666666668C125 129.6625 129.66375 125 135.4166666666667 125H197.9166666666667C203.6695833333333 125 208.3333333333333 129.6625 208.3333333333333 135.4166666666668V864.5833333333334zM875 437.5C875 449.0041666666667 865.6708333333332 458.3333333333334 854.1666666666666 458.3333333333334H270.8333333333333C259.3275 458.3333333333334 250 449.0041666666667 250 437.5V229.1666666666668C250 217.6625 259.3275 208.3333333333334 270.8333333333333 208.3333333333334H854.1666666666666C865.6708333333332 208.3333333333334 875 217.6625 875 229.1666666666668V437.5zM333.3333333333333 375H791.6666666666666V291.6666666666668H333.3333333333333V375zM645.8333333333333 791.6666666666667C657.3375 791.6666666666667 666.6666666666666 782.3391666666666 666.6666666666666 770.8333333333334V562.5C666.6666666666666 550.9958333333334 657.3375 541.6666666666667 645.8333333333333 541.6666666666667H270.8333333333333C259.3275 541.6666666666667 250 550.9958333333334 250 562.5V770.8333333333334C250 782.3391666666666 259.3275 791.6666666666667 270.8333333333333 791.6666666666667H645.8333333333333zM583.3333333333333 708.3333333333334H333.3333333333333V625H583.3333333333333V708.3333333333334z" />
    <glyph glyph-name="alinhamento-justificado"
      unicode="&#xEA19;"
      horiz-adv-x="1000" d="M875 137.7583333333335V195.5916666666667C875 202.6333333333333 869.2916666666666 208.3416666666667 862.2499999999999 208.3416666666667H137.75C130.7083333333333 208.3416666666667 125 202.6333333333333 125 195.5916666666667V137.7583333333335C125 130.7166666666667 130.7083333333333 125.0083333333333 137.75 125.0083333333333H862.2499999999999C869.2916666666666 125.0083333333333 875 130.7166666666667 875 137.7583333333335zM875 302.0916666666667V364.5916666666667C875 370.3416666666667 870.3333333333334 375.0083333333334 864.5833333333333 375.0083333333334H135.4166666666667C129.6666666666667 375.0083333333334 125 370.3416666666667 125 364.5916666666667V302.0916666666667C125 296.3416666666668 129.6666666666667 291.6750000000001 135.4166666666667 291.6750000000001H864.5833333333333C870.3333333333334 291.6750000000001 875 296.3416666666668 875 302.0916666666667zM875 471.0916666666667V528.9250000000001C875 535.9666666666667 869.2916666666666 541.675 862.2499999999999 541.675H137.75C130.7083333333333 541.675 125 535.9666666666667 125 528.9250000000001V471.0916666666667C125 464.0500000000001 130.7083333333333 458.3416666666667 137.75 458.3416666666667H862.2499999999999C869.2916666666666 458.3416666666667 875 464.0500000000001 875 471.0916666666667zM875 635.425V697.925C875 703.675 870.3333333333334 708.3416666666667 864.5833333333333 708.3416666666667H135.4166666666667C129.6666666666667 708.3416666666667 125 703.675 125 697.925V635.425C125 629.675 129.6666666666667 625.0083333333333 135.4166666666667 625.0083333333333H864.5833333333333C870.3333333333334 625.0083333333333 875 629.675 875 635.425zM862.2499999999999 791.6750000000001H137.75C130.7083333333333 791.6750000000001 125 797.3833333333333 125 804.425V862.2583333333333C125 869.3 130.7083333333333 875.0083333333333 137.75 875.0083333333333H862.2499999999999C869.2916666666666 875.0083333333333 875 869.3 875 862.2583333333333V804.425C875 797.3833333333333 869.2916666666666 791.6750000000001 862.2499999999999 791.6750000000001z" />
    <glyph glyph-name="alinhamento-vertical-centralizado"
      unicode="&#xEA1A;"
      horiz-adv-x="1000" d="M208.3333333333333 770.8333333333334C208.3333333333333 782.3391666666666 217.6608333333333 791.6666666666667 229.1666666666667 791.6666666666667H437.5C449.0041666666666 791.6666666666667 458.3333333333333 782.3391666666666 458.3333333333333 770.8333333333334V541.6666666666667H541.6666666666666V687.5C541.6666666666666 699.0058333333334 550.9958333333333 708.3333333333334 562.5 708.3333333333334H770.8333333333333C782.3375 708.3333333333334 791.6666666666666 699.0058333333334 791.6666666666666 687.5V541.6666666666667H864.5833333333333C870.3375 541.6666666666667 875 537.0041666666666 875 531.25V468.75C875 462.9958333333334 870.3375 458.3333333333334 864.5833333333333 458.3333333333334H791.6666666666666V312.5C791.6666666666666 300.9958333333334 782.3375 291.6666666666668 770.8333333333333 291.6666666666668H562.5C550.9958333333333 291.6666666666668 541.6666666666666 300.9958333333334 541.6666666666666 312.5V458.3333333333334H458.3333333333333V229.1666666666668C458.3333333333333 217.6625 449.0041666666666 208.3333333333334 437.5 208.3333333333334H229.1666666666667C217.6608333333333 208.3333333333334 208.3333333333333 217.6625 208.3333333333333 229.1666666666668V458.3333333333334H135.4166666666667C129.66375 458.3333333333334 125 462.9958333333334 125 468.75V531.25C125 537.0041666666666 129.66375 541.6666666666667 135.4166666666667 541.6666666666667H208.3333333333333V770.8333333333334zM375 708.3333333333334H291.6666666666667V291.6666666666668H375V708.3333333333334zM708.3333333333333 625H625V375H708.3333333333333V625z" />
    <glyph glyph-name="alinhamento-vertical-inferior"
      unicode="&#xEA1B;"
      horiz-adv-x="1000" d="M875 197.9583333333335V135.375C875 129.6250000000001 870.3749999999999 125 864.625 125H135.375C129.625 125 125 129.6250000000001 125 135.375V197.9583333333335C125 203.7083333333334 129.625 208.3333333333334 135.375 208.3333333333334H864.625C870.3749999999999 208.3333333333334 875 203.7083333333334 875 197.9583333333335zM541.6666666666666 645.8333333333334C541.6666666666666 657.3391666666666 550.9958333333333 666.6666666666667 562.5 666.6666666666667H770.8333333333333C782.3375 666.6666666666667 791.6666666666666 657.3391666666666 791.6666666666666 645.8333333333334V270.8333333333334C791.6666666666666 259.3291666666668 782.3375 250 770.8333333333333 250H562.5C550.9958333333333 250 541.6666666666666 259.3291666666668 541.6666666666666 270.8333333333334V645.8333333333334zM708.3333333333333 583.3333333333334H625V333.3333333333334H708.3333333333333V583.3333333333334zM208.3333333333333 812.5C208.3333333333333 824.0058333333334 217.6608333333333 833.3333333333334 229.1666666666667 833.3333333333334H437.5C449.0041666666666 833.3333333333334 458.3333333333333 824.0058333333334 458.3333333333333 812.5V270.8333333333334C458.3333333333333 259.3291666666668 449.0041666666666 250 437.5 250H229.1666666666667C217.6608333333333 250 208.3333333333333 259.3291666666668 208.3333333333333 270.8333333333334V812.5zM375 750H291.6666666666667V333.3333333333334H375V750z" />
    <glyph glyph-name="alinhamento-vertical-superior"
      unicode="&#xEA1C;"
      horiz-adv-x="1000" d="M875 802.0416666666666V864.625C875 870.375 870.3749999999999 875 864.625 875H135.375C129.625 875 125 870.375 125 864.625V802.0416666666666C125 796.2916666666666 129.625 791.6666666666667 135.375 791.6666666666667H864.625C870.3749999999999 791.6666666666667 875 796.2916666666666 875 802.0416666666666zM541.6666666666666 354.1666666666668C541.6666666666666 342.6625 550.9958333333333 333.3333333333334 562.5 333.3333333333334H770.8333333333333C782.3375 333.3333333333334 791.6666666666666 342.6625 791.6666666666666 354.1666666666668V729.1666666666667C791.6666666666666 740.6725 782.3375 750 770.8333333333333 750H562.5C550.9958333333333 750 541.6666666666666 740.6725 541.6666666666666 729.1666666666667V354.1666666666668zM708.3333333333333 416.6666666666668H625V666.6666666666667H708.3333333333333V416.6666666666668zM208.3333333333333 187.5C208.3333333333333 175.9958333333334 217.6608333333333 166.6666666666668 229.1666666666667 166.6666666666668H437.5C449.0041666666666 166.6666666666668 458.3333333333333 175.9958333333334 458.3333333333333 187.5V729.1666666666667C458.3333333333333 740.6725 449.0041666666666 750 437.5 750H229.1666666666667C217.6608333333333 750 208.3333333333333 740.6725 208.3333333333333 729.1666666666667V187.5zM375 250H291.6666666666667V666.6666666666667H375V250z" />
    <glyph glyph-name="alto-contraste"
      unicode="&#xEA1D;"
      horiz-adv-x="1000" d="M166.6666666666667 500C166.6666666666667 683.7916666666667 316.2083333333333 833.3333333333334 500 833.3333333333334V166.6666666666668C316.2083333333333 166.6666666666668 166.6666666666667 316.2083333333334 166.6666666666667 500zM500 916.6666666666666C270.25 916.6666666666666 83.3333333333333 729.75 83.3333333333333 500C83.3333333333333 270.2500000000001 270.25 83.3333333333334 500 83.3333333333334C730.0833333333333 83.3333333333334 916.6666666666666 269.9166666666668 916.6666666666666 500C916.6666666666666 730.125 730.0833333333333 916.6666666666666 500 916.6666666666666z" />
    <glyph glyph-name="alto-falante"
      unicode="&#xEA1E;"
      horiz-adv-x="1000" d="M750 541.6666666666667V458.3333333333334H916.6666666666666V541.6666666666667H750zM666.6666666666666 266.2500000000001C706.6666666666666 236.6666666666668 758.75 197.5 799.9999999999999 166.6666666666668C816.6666666666666 188.7500000000001 833.3333333333333 211.25 849.9999999999999 233.3333333333335C808.75 264.1666666666668 756.6666666666666 303.3333333333334 716.6666666666666 333.3333333333334C700 310.8333333333334 683.3333333333333 288.3333333333335 666.6666666666666 266.2500000000001zM849.9999999999999 766.6666666666667C833.3333333333333 788.75 816.6666666666666 811.25 799.9999999999999 833.3333333333334C758.75 802.5 706.6666666666666 763.3333333333334 666.6666666666666 733.3333333333333C683.3333333333333 711.25 700 688.75 716.6666666666666 666.6666666666667C756.6666666666666 696.6666666666667 808.75 735.4166666666667 849.9999999999999 766.6666666666667zM166.6666666666667 625C120.8333333333333 625 83.3333333333333 587.5 83.3333333333333 541.6666666666667V458.3333333333334C83.3333333333333 412.5 120.8333333333333 375 166.6666666666667 375H208.3333333333333V208.3333333333334H291.6666666666667V375H333.3333333333333L541.6666666666666 250V750L333.3333333333333 625H166.6666666666667zM645.8333333333333 500C645.8333333333333 555.4166666666667 621.6666666666666 605.4166666666667 583.3333333333333 639.5833333333333V360.8333333333334C621.6666666666666 394.5833333333334 645.8333333333333 444.5833333333334 645.8333333333333 500z" />
    <glyph glyph-name="alvo"
      unicode="&#xEA1F;"
      horiz-adv-x="1000" d="M500 166.6666666666668C316.2083333333333 166.6666666666668 166.6666666666667 316.2083333333334 166.6666666666667 500C166.6666666666667 683.7916666666667 316.2083333333333 833.3333333333334 500 833.3333333333334C683.7916666666666 833.3333333333334 833.3333333333333 683.7916666666667 833.3333333333333 500C833.3333333333333 316.2083333333334 683.7916666666666 166.6666666666668 500 166.6666666666668zM500 916.6666666666666C270.2083333333333 916.6666666666666 83.3333333333333 729.75 83.3333333333333 500C83.3333333333333 270.2500000000001 270.2083333333333 83.3333333333334 500 83.3333333333334C729.7499999999999 83.3333333333334 916.6666666666666 270.2500000000001 916.6666666666666 500C916.6666666666666 729.75 729.7499999999999 916.6666666666666 500 916.6666666666666zM583.3333333333333 500C583.3333333333333 454.0000000000001 545.9999999999999 416.6666666666668 500 416.6666666666668C454 416.6666666666668 416.6666666666667 454.0000000000001 416.6666666666667 500C416.6666666666667 546 454 583.3333333333334 500 583.3333333333334C545.9999999999999 583.3333333333334 583.3333333333333 546 583.3333333333333 500zM500 333.3333333333334C408.0833333333333 333.3333333333334 333.3333333333333 408.0833333333334 333.3333333333333 500C333.3333333333333 591.9166666666667 408.0833333333333 666.6666666666667 500 666.6666666666667C591.9166666666666 666.6666666666667 666.6666666666666 591.9166666666667 666.6666666666666 500C666.6666666666666 408.0833333333334 591.9166666666666 333.3333333333334 500 333.3333333333334zM500 750C362.125 750 250 637.875 250 500C250 362.1250000000001 362.125 250 500 250C637.8749999999999 250 750 362.1250000000001 750 500C750 637.875 637.8749999999999 750 500 750z" />
    <glyph glyph-name="android"
      unicode="&#xEA20;"
      horiz-adv-x="1000" d="M620.6833333333333 783.9641666666666C620.6833333333333 798.8391666666666 609.05 810.9225 594.7291666666666 810.9225C580.3291666666667 810.9225 568.7375 798.8391666666666 568.7375 783.9641666666666C568.7375 769.0891666666666 580.3291666666667 757.0058333333334 594.7291666666666 757.0058333333334C609.05 757.0058333333334 620.6833333333333 769.0891666666666 620.6833333333333 783.9641666666666zM431.2625 783.9641666666666C431.2625 798.8391666666666 419.6291666666666 810.9225 405.3091666666667 810.9225C390.9079166666667 810.9225 379.2745833333333 798.8391666666666 379.2745833333333 783.9641666666666C379.2745833333333 769.0891666666666 390.9079166666667 757.0058333333334 405.3091666666667 757.0058333333334C419.6291666666666 757.0058333333334 431.2625 769.0891666666666 431.2625 783.9641666666666zM715.7583333333333 686.2975H284.2029166666667C284.2029166666667 686.2975 287.3316666666667 807.1725 394.59875 856.3391666666666L357.8133333333333 910.2975C357.0512499999999 911.4641666666666 358.1741666666667 913.5891666666666 360.3404166666667 915.1725C362.4666666666667 916.7975 364.7933333333333 917.1308333333334 365.5954166666667 916.0058333333334L403.5841666666666 860.2975C429.6166666666667 870.6725 461.3083333333333 877.0475 499.9791666666666 876.9225C538.45 876.8391666666666 569.9791666666666 870.2141666666666 595.9749999999999 859.6725L634.4041666666666 916.0058333333334C635.1666666666666 917.1308333333334 637.5333333333333 916.7975 639.6583333333333 915.1725C641.7875 913.5891666666666 642.9499999999999 911.4641666666666 642.1458333333333 910.2975L604.8791666666666 855.7141666666666C711.3833333333333 806.0475 715.7583333333333 686.2975 715.7583333333333 686.2975zM212.91875 675.0891666666666C187.3658333333334 675.0891666666666 166.6666666666667 653.5475 166.6666666666667 627.0058333333334V411.0041666666667C166.6666666666667 384.4208333333334 187.3658333333334 362.9208333333334 212.91875 362.9208333333334C238.5120833333333 362.9208333333334 259.21125 384.4208333333334 259.21125 411.0041666666667V627.0058333333334C259.21125 653.5475 238.5120833333333 675.0891666666666 212.91875 675.0891666666666zM787.0416666666666 675.0891666666666C761.4875 675.0891666666666 740.7874999999999 653.5475 740.7874999999999 627.0058333333334V411.0041666666667C740.7874999999999 384.4208333333334 761.4875 362.9208333333334 787.0416666666666 362.9208333333334C812.5958333333333 362.9208333333334 833.3333333333333 384.4208333333334 833.3333333333333 411.0041666666667V627.0058333333334C833.3333333333333 653.5475 812.5958333333333 675.0891666666666 787.0416666666666 675.0891666666666zM691.1666666666666 659.7141666666666H717.5624999999999V473.6708333333333H717.1624999999999V278.5041666666667C717.1624999999999 263.5875000000001 705.4875 251.5041666666667 691.1666666666666 251.5041666666667H635.5666666666666V131.4208333333334C635.5666666666666 104.8375000000001 614.8291666666667 83.3375000000001 589.3166666666666 83.3375000000001C563.7208333333333 83.3375000000001 542.9833333333332 104.8375000000001 542.9833333333332 131.4208333333334V251.5041666666667H456.975V131.4208333333334C456.975 104.8375000000001 436.2375 83.3375000000001 410.6845833333333 83.3375000000001C385.1316666666666 83.3375000000001 364.3920833333333 104.8375000000001 364.3920833333333 131.4208333333334V251.5041666666667H308.8333333333333C294.4720833333334 251.5041666666667 282.79875 263.5875000000001 282.79875 278.5041666666667V473.6708333333333H282.3975V659.7141666666666H308.8333333333333H691.1666666666666z" />
    <glyph glyph-name="anexo"
      unicode="&#xEA21;"
      horiz-adv-x="1000" d="M583.35 916.6833333333334C698.225 916.6833333333334 791.6833333333333 823.225 791.6833333333333 708.35V375.0166666666668C791.6833333333333 214.2250000000001 660.8083333333333 83.35 500.0166666666667 83.35C339.225 83.35 208.35 214.2250000000001 208.35 375.0166666666668V666.6833333333334C208.35 689.725 226.975 708.35 250.0166666666667 708.35C273.0583333333334 708.35 291.6833333333334 689.725 291.6833333333334 666.6833333333334V375.0166666666668C291.6833333333334 260.1416666666668 385.1416666666666 166.6833333333334 500.0166666666667 166.6833333333334C614.8916666666667 166.6833333333334 708.3499999999999 260.1416666666668 708.3499999999999 375.0166666666668V708.35C708.3499999999999 777.2666666666667 652.2666666666667 833.35 583.35 833.35C514.4333333333333 833.35 458.35 777.2666666666667 458.35 708.35V375.0166666666668C458.35 352.0166666666667 477.0166666666666 333.35 500.0166666666667 333.35C523.0166666666667 333.35 541.6833333333334 352.0166666666667 541.6833333333334 375.0166666666668V708.35C541.6833333333334 731.3916666666667 560.3083333333333 750.0166666666667 583.35 750.0166666666667C606.3916666666667 750.0166666666667 625.0166666666667 731.3916666666667 625.0166666666667 708.35V375.0166666666668C625.0166666666667 306.1 568.9333333333333 250.0166666666667 500.0166666666667 250.0166666666667C431.1 250.0166666666667 375.0166666666667 306.1 375.0166666666667 375.0166666666668V708.35C375.0166666666667 823.225 468.475 916.6833333333334 583.35 916.6833333333334z" />
    <glyph glyph-name="angular"
      unicode="&#xEA22;"
      horiz-adv-x="1000" d="M499.9791666666666 916.6666666666666L875 778.2916666666667L817.6374999999999 265.4583333333334L499.9791666666666 83.3333333333334L182.3625 265.4583333333334L125 778.2916666666667L499.9791666666666 916.6666666666666zM499.9791666666666 824.5833333333334L265.2333333333333 280.875H353.1166666666667L400.41375 402.5416666666667H599.9916666666667L647.2458333333333 280.875H734.9666666666666L499.9791666666666 824.5833333333334zM499.9791666666666 647.9166666666667L568.7833333333333 477.5000000000001H431.2166666666667L499.9791666666666 647.9166666666667z" />
    <glyph glyph-name="aniversario"
      unicode="&#xEA23;"
      horiz-adv-x="1000" d="M500 670.4545833333334C535.9708333333333 670.4545833333334 564.8166666666666 701.13625 564.8166666666666 738.63625C564.8166666666666 751.5908333333333 561.5749999999999 763.5229166666667 555.4166666666666 773.75L500 875L444.5833333333333 773.75C438.425 763.5229166666667 435.1833333333333 751.5908333333333 435.1833333333333 738.63625C435.1833333333333 701.13625 464.35 670.4545833333334 500 670.4545833333334zM649.0749999999999 329.8875000000001L614.4 366.3625000000001L579.4 329.8875000000001C537.2666666666667 285.5666666666667 463.3791666666667 285.2291666666668 420.925 329.8875000000001L386.25 366.3625000000001L350.9258333333333 329.8875000000001C329.86125 307.7291666666668 301.6666666666667 295.4541666666668 271.8516666666667 295.4541666666668C248.1945833333334 295.4541666666668 226.4816666666667 303.2958333333334 208.3333333333333 316.25V159.0916666666667C208.3333333333333 140.3416666666668 222.9166666666666 125 240.7408333333333 125H759.2583333333333C777.0833333333333 125 791.6666666666666 140.3416666666668 791.6666666666666 159.0916666666667V316.25C773.5166666666665 303.2958333333334 751.8041666666666 295.4541666666668 728.15 295.4541666666668C698.3333333333334 295.4541666666668 670.1375 307.7291666666668 649.0749999999999 329.8875000000001zM694.4458333333332 568.1833333333334H541.6666666666666V625H458.3333333333333V568.1833333333334H305.5554166666667C251.7591666666667 568.1833333333334 208.3333333333333 522.5 208.3333333333333 465.9083333333334V413.4083333333333C208.3333333333333 376.5916666666667 236.8516666666667 346.5916666666667 271.8516666666667 346.5916666666667C288.70375 346.5916666666667 304.9075 353.4083333333334 316.5741666666667 366.0208333333334L385.9258333333333 438.6375000000001L454.9541666666667 366.0208333333334C478.9333333333333 340.7958333333334 520.7416666666667 340.7958333333334 544.7208333333333 366.0208333333334L614.0749999999999 438.6375000000001L683.1 366.0208333333334C695.0916666666667 353.4083333333334 710.9708333333334 346.5916666666667 727.8249999999999 346.5916666666667C762.8249999999999 346.5916666666667 791.3416666666666 376.5916666666667 791.3416666666666 413.4083333333333V465.9083333333334C791.6666666666666 522.5 748.2416666666666 568.1833333333334 694.4458333333332 568.1833333333334z" />
    <glyph glyph-name="arquivar"
      unicode="&#xEA24;"
      horiz-adv-x="1000" d="M797.9166666666665 852.0833333333334L855.8333333333333 782.125C867.9166666666665 767.9583333333334 875 749.1666666666667 875 729.1666666666667V208.3333333333334C875 162.5 837.5 125 791.6666666666666 125H208.3333333333333C162.5 125 125 162.5 125 208.3333333333334V729.1666666666667C125 749.1666666666667 132.0833333333333 767.9583333333334 144.1666666666667 782.125L201.6666666666667 852.0833333333334C213.3333333333333 866.25 230.4166666666667 875 250 875H750C769.5833333333333 875 786.6666666666666 866.25 797.9166666666665 852.0833333333334zM259.8783333333334 791.6666666666667H259.3841666666667L225.4275 750H225.6316666666667H774.2458333333333H774.4499999999999L740.3124999999999 791.6666666666667H739.75H259.8783333333334zM208.3333333333333 208.3333333333334H791.6666666666666V666.6666666666667H208.3333333333333V208.3333333333334zM500 291.6666666666668L375 458.3333333333334H458.3333333333333V583.3333333333334H541.6666666666666V458.3333333333334H625L500 291.6666666666668z" />
    <glyph glyph-name="arvore"
      unicode="&#xEA25;"
      horiz-adv-x="1000" d="M831.7791666666667 666.1254166666668C858.4666666666667 639.6958333333334 875 603.02875 875 562.5C875 502.85 839.1833333333333 451.5625 787.8833333333332 428.9708333333333C790.3583333333332 418.3250000000001 791.6666666666666 407.2333333333334 791.6666666666666 395.8333333333334C791.6666666666666 315.2916666666668 726.375 250 645.8333333333333 250C623.4666666666667 250 602.275 255.0333333333333 583.3333333333333 264.0333333333334V83.3333333333334H416.6666666666667V264.0333333333334C397.72375 255.0333333333333 376.5333333333333 250 354.1666666666667 250C273.625 250 208.3333333333333 315.2916666666668 208.3333333333333 395.8333333333334C208.3333333333333 407.2333333333334 209.64125 418.3250000000001 212.1145833333333 428.9708333333333C160.815 451.5625 125 502.85 125 562.5C125 603.02875 141.5329166666667 639.6958333333334 168.2220833333333 666.1254166666668C167.1975 673.1020833333333 166.6666666666667 680.2391666666667 166.6666666666667 687.5C166.6666666666667 768.0416666666667 231.9583333333333 833.3333333333334 312.5 833.3333333333334C326.3891666666667 833.3333333333334 339.8245833333333 831.3916666666667 352.55 827.765C380.4920833333333 880.6366666666667 436.0375 916.6666666666666 500 916.6666666666666C563.9625 916.6666666666666 619.5083333333333 880.63625 647.4499999999999 827.765C660.175 831.3916666666667 673.6125 833.3333333333334 687.5 833.3333333333334C768.0416666666666 833.3333333333334 833.3333333333333 768.0416666666667 833.3333333333333 687.5C833.3333333333333 680.2391666666667 832.8041666666667 673.1020833333333 831.7791666666667 666.1254166666668zM670.2916666666666 747.6225000000001C632.425 736.83125 592.1708333333332 754.0154166666666 573.775 788.8275C559.6916666666667 815.47375 531.8666666666666 833.3333333333334 500 833.3333333333334C468.1375 833.3333333333334 440.3083333333333 815.47375 426.225 788.8275C407.8291666666667 754.0158333333334 367.5766666666667 736.83125 329.7104166666667 747.6229166666667C324.3395833333334 749.1533333333334 318.5883333333333 750 312.5 750C277.9820833333333 750 250 722.0179166666667 250 687.5C250 684.3045833333333 250.2333333333333 681.2145833333334 250.6708333333333 678.235C254.52 652.0274999999999 245.6804166666667 625.55125 226.85875 606.9129166666667C215.3254166666667 595.4916666666667 208.3333333333333 579.8916666666667 208.3333333333333 562.5C208.3333333333333 537.0625 223.53875 514.9958333333334 245.7004166666667 505.2375C282.3666666666666 489.0875 302.3533333333333 449.1333333333334 293.2858333333333 410.1083333333334C292.23875 405.6041666666668 291.6666666666667 400.8375000000001 291.6666666666667 395.8333333333334C291.6666666666667 361.3166666666667 319.64875 333.3333333333334 354.1666666666667 333.3333333333334C372.2008333333333 333.3333333333334 388.3466666666667 340.8625000000001 399.8633333333333 353.1958333333334C401.9108333333334 355.3875000000001 404.06 357.4500000000001 406.2995833333333 359.3875000000001L333.3333333333333 446.4875000000001L397.2133333333333 500L458.3333333333333 427.0416666666668V541.6666666666667H541.6666666666666V439.7750000000001L592.1208333333333 500L656 446.4875000000001L587.2541666666666 364.4250000000001C591.8708333333333 361.1666666666667 596.1916666666666 357.4166666666667 600.1374999999999 353.1958333333334C611.6541666666667 340.8625000000001 627.8 333.3333333333334 645.8333333333333 333.3333333333334C680.3499999999999 333.3333333333334 708.3333333333333 361.3166666666667 708.3333333333333 395.8333333333334C708.3333333333333 400.8375000000001 707.7624999999999 405.6041666666668 706.7124999999999 410.1083333333334C697.6458333333334 449.1333333333334 717.6333333333332 489.0875 754.3 505.2375C776.4625 514.9958333333334 791.6666666666666 537.0625 791.6666666666666 562.5C791.6666666666666 579.8916666666667 784.675 595.4916666666667 773.1416666666665 606.9124999999999C754.3208333333333 625.5508333333335 745.4791666666666 652.0274999999999 749.3291666666665 678.235C749.7666666666665 681.2145833333334 750 684.3045833333333 750 687.5C750 722.0179166666667 722.0166666666665 750 687.5 750C681.4124999999999 750 675.6625 749.1533333333334 670.2916666666666 747.6225000000001z" />
    <glyph glyph-name="ativacao"
      unicode="&#xEA26;"
      horiz-adv-x="1000" d="M500.0166666666667 500.0041666666667C523.0166666666667 500.0041666666667 541.6833333333334 518.6291666666667 541.6833333333334 541.6708333333333V791.67125C541.6833333333334 814.67125 523.0166666666667 833.3379166666666 500.0166666666667 833.3379166666666C476.975 833.3379166666666 458.35 814.67125 458.35 791.67125V541.6708333333333C458.35 518.6291666666667 476.975 500.0041666666667 500.0166666666667 500.0041666666667zM833.3499999999999 500.0041666666667C833.3499999999999 316.2125 683.8083333333333 166.6708333333334 500.0166666666667 166.6708333333334C316.22625 166.6708333333334 166.6845833333333 316.2125 166.6845833333333 500.0041666666667C166.6845833333333 608.9212500000001 220.0595833333333 711.17125 309.5179166666666 773.54625C328.3929166666666 786.7129166666666 354.3929166666667 782.0879166666666 367.5179166666666 763.17125C380.6845833333334 744.3379166666667 376.0179166666667 718.3379166666666 357.1429166666666 705.2129166666666C290.0595833333333 658.4212500000001 250.0179166666667 581.6708333333333 250.0179166666667 500.0041666666667C250.0179166666667 362.1291666666667 362.1429166666667 250.0041666666667 500.0166666666667 250.0041666666667C637.8916666666667 250.0041666666667 750.0166666666665 362.1291666666667 750.0166666666665 500.0041666666667C750.0166666666665 581.6708333333333 709.9333333333333 658.4212500000001 642.8499999999999 705.2129166666666C623.975 718.3379166666666 619.3499999999999 744.3379166666667 632.5166666666667 763.17125C645.6416666666667 782.0879166666666 671.5583333333333 786.7545833333334 690.5166666666665 773.54625C779.975 711.17125 833.3499999999999 608.9212500000001 833.3499999999999 500.0041666666667z" />
    <glyph glyph-name="atividade"
      unicode="&#xEA27;"
      horiz-adv-x="1000" d="M750.0249999999999 652.7833333333333C765.6499999999999 652.7833333333333 779.9 644.0333333333333 787.0666666666667 630.1583333333333C794.1916666666666 616.2416666666667 792.9833333333333 599.5333333333333 783.9 586.8666666666667L465.6916666666667 142.4083333333334C457.7333333333333 131.2416666666667 444.9833333333334 124.9916666666668 431.8166666666667 124.9916666666668C427.5666666666666 124.9916666666668 423.275 125.6166666666668 419.0666666666667 126.9916666666667C401.86 132.4916666666667 390.1516666666667 148.5333333333334 390.1516666666667 166.6583333333334V480.5333333333334H250.0266666666667C236.86 480.5333333333334 224.5266666666667 486.7 216.6516666666667 497.2C208.7766666666667 507.7 206.3183333333333 521.2833333333333 210.0266666666667 533.8666666666667L300.9016666666667 844.9916666666667C306.0683333333334 862.7833333333333 322.4016666666667 874.9916666666667 340.9016666666667 874.9916666666667H613.65C626.1916666666667 874.9916666666667 638.025 869.3666666666667 645.9416666666666 859.7C653.8583333333333 849.95 656.9833333333332 837.2 654.4833333333332 824.9916666666667L619.275 652.7833333333333H750.0249999999999zM473.4833333333333 522.2V296.4083333333334L668.9416666666666 569.45H568.1916666666666C555.6916666666667 569.45 543.8166666666666 575.0333333333333 535.9 584.7416666666667C528.025 594.45 524.8583333333333 607.2 527.4 619.45L562.6083333333332 791.6583333333333H372.11L305.61 563.8666666666667H431.8166666666667C454.8583333333333 563.8666666666667 473.4833333333333 545.2416666666668 473.4833333333333 522.2z" />
    <glyph glyph-name="atualizar"
      unicode="&#xEA28;"
      horiz-adv-x="1000" d="M875 500L750 375L625 500H708.3333333333333C708.3333333333333 637.875 596.2083333333333 750 458.3333333333333 750C320.4583333333333 750 208.3333333333333 637.875 208.3333333333333 500C208.3333333333333 362.1250000000001 320.4583333333333 250 458.3333333333333 250V166.6666666666668C274.5416666666667 166.6666666666668 125 316.2083333333334 125 500C125 683.7916666666667 274.5416666666667 833.3333333333334 458.3333333333333 833.3333333333334C642.125 833.3333333333334 791.6666666666666 683.7916666666667 791.6666666666666 500H875z" />
    <glyph glyph-name="audio-descricao"
      unicode="&#xEA29;"
      horiz-adv-x="1000" d="M642.9166666666666 666.5179166666667C851.2499999999999 624.85125 814.9999999999999 346.1 642.9166666666666 333.1833333333334C675.2624999999999 347.4166666666667 702.7666666666665 370.75 722.0791666666665 400.3458333333334C741.3916666666665 429.9375 751.675 464.5125 751.675 499.85C751.675 535.1875 741.3916666666665 569.7625 722.0791666666665 599.3575000000001C702.7666666666665 628.9516666666666 675.2624999999999 652.2870833333334 642.9166666666666 666.5179166666667zM722.5 333.1833333333334C877.9166666666666 346.1 911.25 624.85125 722.5 666.5179166666667C752.175 649.9675 776.8958333333333 625.7933333333333 794.1041666666665 596.49375C811.3124999999999 567.1916666666667 820.3833333333333 533.8291666666667 820.3833333333333 499.85C820.3833333333333 465.8708333333334 811.3124999999999 432.5083333333334 794.1041666666665 403.2083333333334C776.8958333333333 373.9083333333334 752.175 349.7333333333334 722.5 333.1833333333334zM787.4999999999999 333.1833333333334C942.5 346.1 976.2499999999998 624.85125 787.4999999999999 666.5179166666667C817.1750000000001 649.9675 841.8958333333333 625.7933333333333 859.1041666666666 596.49375C876.3125 567.1916666666667 885.3833333333332 533.8291666666667 885.3833333333332 499.85C885.3833333333332 465.8708333333334 876.3125 432.5083333333334 859.1041666666666 403.2083333333334C841.8958333333333 373.9083333333334 817.1750000000001 349.7333333333334 787.4999999999999 333.1833333333334zM404.1666666666667 666.5179166666667H291.6666666666667L83.3333333333333 333.1833333333334H187.5L210.8333333333333 374.85H320.8333333333333V333.1833333333334H404.1666666666667V666.5179166666667zM250 444.4333333333334L320.8333333333333 569.4333333333334V444.4333333333334H250zM541.6666666666666 666.5179166666667H416.6666666666667V333.1833333333334H541.6666666666666C564.3041666666667 332.2375000000001 586.9 335.8208333333334 608.1291666666666 343.7333333333334C629.3583333333332 351.6416666666667 648.7958333333332 363.7125000000001 665.2916666666666 379.2416666666668C681.7874999999999 394.7708333333334 695.0166666666665 413.4375 704.1958333333333 434.1500000000001C713.3791666666666 454.8625000000001 718.3249999999999 477.2 718.75 499.85C718.3249999999999 522.5041666666667 713.3791666666666 544.8416666666667 704.1958333333333 565.5541666666667C695.0166666666665 586.2650000000001 681.7874999999999 604.9333333333334 665.2916666666666 620.4608333333333C648.7958333333332 635.9879166666667 629.3583333333332 648.0608333333333 608.1291666666666 655.9704166666667C586.9 663.8795833333334 564.3041666666667 667.4658333333334 541.6666666666666 666.5179166666667zM554.1666666666666 416.5166666666667H500V583.1833333333334H554.1666666666666C564.3416666666666 582.5083333333334 574.275 579.7958333333333 583.3833333333333 575.2083333333334C592.4916666666666 570.6208333333334 600.5875 564.2583333333333 607.1916666666666 556.4875000000001C613.7958333333332 548.7166666666667 618.775 539.7 621.8333333333333 529.975C624.8916666666667 520.2458333333334 625.9708333333333 510.0041666666667 625 499.85C625.9708333333333 489.7 624.8916666666667 479.4583333333334 621.8333333333333 469.7291666666667C618.775 460 613.7958333333332 450.9875000000001 607.1916666666666 443.2166666666667C600.5875 435.4458333333334 592.4916666666666 429.0791666666668 583.3833333333333 424.4958333333334C574.275 419.9083333333334 564.3416666666666 417.1958333333335 554.1666666666666 416.5166666666667z" />
    <glyph glyph-name="audio"
      unicode="&#xEA2A;"
      horiz-adv-x="1000" d="M875 500C875 318.1666666666667 783.3749999999999 224.4583333333334 779.4583333333334 220.5416666666666L720.5416666666666 279.4583333333334C723.2083333333333 282.2083333333334 791.6666666666666 354.5416666666668 791.6666666666666 500C791.6666666666666 645.4583333333333 723.2083333333333 717.75 720.2916666666666 720.75L779.4583333333334 779.4583333333334C783.3749999999999 775.5416666666667 875 681.8333333333334 875 500zM750 500C750 400.5416666666667 678.3333333333334 327.75 675.2916666666666 324.7083333333334L616.3749999999999 383.6250000000001C616.75 384 666.6666666666666 435.625 666.6666666666666 500C666.6666666666666 564.375 616.75 616 616.2499999999999 616.5L675.2916666666666 675.2916666666667C678.3333333333334 672.25 750 599.4583333333334 750 500zM500 309L390.7083333333333 430.6666666666668L365.875 458.3333333333334H328.7083333333333H208.3333333333333V541.6666666666667H328.7083333333333H365.875L390.6666666666667 569.3333333333334L500 690.9583333333334V309zM562.3333333333334 875C557.2916666666666 875 552.125 873.1666666666666 547.8749999999999 869L328.7083333333333 625H166.625C143.625 625 125 606.375 125 583.375V416.625C125 393.625 143.625 375 166.625 375H328.7083333333333L547.8749999999999 130.9583333333334C552.125 126.7916666666666 557.2916666666666 124.9583333333334 562.3333333333334 124.9583333333334C573.0833333333333 124.9583333333334 583.3333333333333 133.2916666666668 583.3333333333333 145.8333333333334V854.125C583.3333333333333 866.6666666666666 573.0833333333333 875 562.3333333333334 875z" />
    <glyph glyph-name="aumentar-tamanho"
      unicode="&#xEA2B;"
      horiz-adv-x="1000" d="M326.8333333333333 833.3333333333334L83.3333333333333 166.6666666666668H220.0833333333333L260.3333333333333 284.625H496.25L535.625 166.6666666666668H672.3333333333333L428.875 833.3333333333334H326.8333333333333zM378.3333333333333 635.7916666666667L459.75 394.2083333333334H295.875L378.3333333333333 635.7916666666667zM750 625V541.6666666666667H666.7083333333334V458.3333333333334H750V375H833.3333333333333V458.3333333333334H916.6666666666666V541.6666666666667H833.3333333333333V625H750z" />
    <glyph glyph-name="autoatendimento"
      unicode="&#xEA2C;"
      horiz-adv-x="1000" d="M208.345 666.6666666666667C208.345 804.7083333333334 320.3033333333334 916.6666666666666 458.3458333333333 916.6666666666666C596.3874999999999 916.6666666666666 708.3458333333333 804.7083333333334 708.3458333333333 666.6666666666667C708.3458333333333 616.625 693.5125 570.1666666666667 668.2208333333332 531.0833333333334L592.1791666666667 568.4166666666667C612.5541666666667 596 625.0124999999999 629.7916666666667 625.0124999999999 666.6666666666667C625.0124999999999 758.5833333333334 550.2625 833.3333333333334 458.3458333333333 833.3333333333334C366.4283333333334 833.3333333333334 291.6783333333334 758.5833333333334 291.6783333333334 666.6666666666667V480.7083333333334C240.6366666666667 526.4583333333334 208.345 592.7083333333333 208.345 666.6666666666667zM721.7624999999999 200.7500000000001C718.0958333333333 181.0000000000001 700.8458333333333 166.6666666666668 680.7624999999999 166.6666666666668H415.0116666666666C402.3033333333333 166.6666666666668 390.5116666666667 172.3750000000001 382.595 182.2916666666668L251.6366666666667 291.6666666666668H416.6791666666666V662.25C416.6791666666666 684.625 431.7625 704.625 451.0541666666667 707.75C463.6791666666666 709.7083333333334 475.8458333333332 706.5 485.3041666666666 698.4583333333334C494.6791666666666 690.5 500.0124999999999 678.9166666666667 500.0124999999999 666.6666666666667V474.0416666666667L750.1374999999999 352.2500000000001L721.7624999999999 200.7500000000001zM786.9291666666666 426.2083333333334L583.3458333333333 526V666.6666666666667C583.3458333333333 703.4166666666667 567.3041666666666 738.125 539.3041666666667 761.9166666666666C511.3041666666666 785.75 474.2625 796 437.6375 790C378.1783333333334 780.3333333333334 333.345 725.375 333.345 662.25V375H250.0116666666667C217.72 375 188.97 356.9583333333334 174.97 327.875C161.0116666666667 298.7083333333334 164.845 265 185.0116666666666 239.7500000000001L320.47 126.6666666666666C344.22 99.0416666666666 378.4283333333334 83.3333333333334 415.0116666666666 83.3333333333334H680.7624999999999C740.9708333333333 83.3333333333334 792.6374999999999 126.2916666666666 803.7208333333333 185.4583333333334L832.2208333333332 337.75C838.2625 374.1666666666668 820.1791666666667 409.7083333333334 786.9291666666666 426.2083333333334z" />
    <glyph glyph-name="avaliacao-meia"
      unicode="&#xEA2D;"
      horiz-adv-x="1000" d="M500 875L374.9583333333333 666.6666666666667L125 625L291.6666666666667 416.6666666666668L250 125L500 250L749.9583333333333 125L708.2916666666666 416.6666666666668L875 625L625 666.6666666666667L500 875zM537.2916666666666 324.5416666666668L500 343.1666666666668V713.0416666666667L553.5416666666666 623.7916666666667L573.3333333333333 590.7916666666667L611.2916666666666 584.4583333333333L721.2083333333334 566.1666666666667L643.25 468.7083333333334L620.75 440.5833333333334L625.8333333333333 404.875L645 270.6666666666667L537.2916666666666 324.5416666666668z" />
    <glyph glyph-name="avaliacao-vazia"
      unicode="&#xEA2E;"
      horiz-adv-x="1000" d="M500 875L375 666.6666666666667L125 625L291.6666666666667 416.6666666666668L250 125L500 250L750 125L708.2916666666666 416.6666666666668L875 625L625 666.6666666666667L500 875zM374.1666666666667 404.875L379.25 440.5833333333334L356.7083333333333 468.7083333333334L278.7916666666667 566.1666666666667L388.7083333333333 584.4583333333333L426.6666666666667 590.7916666666667L446.4583333333333 623.7916666666667L500 713.0416666666667L553.5416666666666 623.7916666666667L573.3333333333333 590.7916666666667L611.2916666666666 584.4583333333333L721.2083333333334 566.1666666666667L643.25 468.7083333333334L620.75 440.5833333333334L625.8333333333333 404.875L645 270.6666666666667L537.2916666666666 324.5416666666668L500 343.1666666666668L462.7083333333333 324.5416666666668L355 270.6666666666667L374.1666666666667 404.875z" />
    <glyph glyph-name="avaliacao"
      unicode="&#xEA2F;"
      horiz-adv-x="1000" d="M500 875L375 666.6666666666667L125 625L291.6666666666667 416.6666666666668L250 125L500 250L750 125L708.2916666666666 416.6666666666668L875 625L625 666.6666666666667L500 875z" />
    <glyph glyph-name="avancar"
      unicode="&#xEA30;"
      horiz-adv-x="1000" d="M517.125 750L458.3749999999999 691.2916666666667L649.2083333333333 500L458.3749999999999 308.7916666666668L517.125 250L767.0833333333333 500L517.125 750zM267.125 750L208.3333333333333 691.2916666666667L399.1666666666667 500L208.3333333333333 308.7916666666668L267.125 250L517.125 500L267.125 750z" />
    <glyph glyph-name="aws"
      unicode="&#xEA31;"
      horiz-adv-x="1000" d="M318.1745833333333 565.9875C318.1745833333333 555.5625 319.2833333333333 547.1083333333333 321.2233333333333 540.9083333333333C323.4408333333334 534.7125000000001 326.2125 527.9458333333334 330.0925 520.6208333333334C331.4783333333333 518.3666666666667 332.0325 516.1125 332.0325 514.1416666666667C332.0325 511.3208333333333 330.3695833333333 508.5041666666667 326.7666666666667 505.6875L309.3058333333333 493.85C306.81125 492.1583333333334 304.3166666666667 491.3125 302.0995833333334 491.3125C299.3279166666666 491.3125 296.55625 492.725 293.785 495.2583333333334C289.9045833333333 499.4875 286.57875 503.9958333333334 283.8070833333333 508.5041666666667C281.0354166666666 513.2958333333333 278.2641666666667 518.6500000000001 275.2154166666667 525.1291666666666C253.5970833333334 499.2041666666667 226.4354166666667 486.2416666666667 193.7308333333333 486.2416666666667C170.4495833333333 486.2416666666667 151.88 493.0041666666667 138.2991666666667 506.5291666666667C124.7183333333333 520.0583333333334 117.7895833333333 538.0916666666667 117.7895833333333 560.6333333333333C117.7895833333333 584.5879166666667 126.1041666666667 604.03125 143.0108333333333 618.6845833333334C159.9175 633.3379166666667 182.3675 640.6645833333333 210.9145833333333 640.6645833333333C220.3379166666667 640.6645833333333 230.0383333333334 639.8191666666667 240.2933333333333 638.4100000000001C250.5483333333333 637.00125 261.0804166666667 634.7466666666667 272.1666666666667 632.2108333333333V652.7816666666668C272.1666666666667 674.1979166666667 267.7320833333333 689.1329166666667 259.14 697.8683333333333C250.27125 706.60375 235.3045833333333 710.8308333333334 213.9633333333333 710.8308333333334C204.2629166666667 710.8308333333334 194.285 709.70375 184.0304166666667 707.1675C173.7754166666667 704.63125 163.7979166666667 701.5316666666668 154.0970833333333 697.5866666666666C149.6629166666667 695.6141666666667 146.3366666666667 694.4866666666667 144.3966666666667 693.9233333333334C142.4566666666667 693.3595833333334 141.0708333333333 693.0779166666666 139.9620833333334 693.0779166666666C136.0820833333333 693.0779166666666 134.1420833333333 695.8958333333334 134.1420833333333 701.8133333333333V715.6212499999999C134.1420833333333 720.1300000000001 134.69625 723.5116666666667 136.0820833333333 725.4841666666666C137.4679166666667 727.4566666666667 139.9620833333334 729.4291666666667 143.8425 731.4016666666666C153.5429166666667 736.47375 165.18375 740.7008333333333 178.7641666666667 744.0825C192.345 747.7458333333334 206.7570833333333 749.43625 222.0008333333333 749.43625C254.9829166666667 749.43625 279.0954166666667 741.8279166666666 294.61625 726.61125C309.86 711.3945833333333 317.6204166666667 688.2875 317.6204166666667 657.2904166666667V565.9875H318.1745833333333zM205.64875 523.1583333333333C214.795 523.1583333333333 224.2183333333333 524.8458333333333 234.1958333333334 528.2291666666667C244.17375 531.6125 253.0425 537.8083333333334 260.5258333333333 546.2625C264.9604166666667 551.6166666666667 268.28625 557.5375 269.9491666666667 564.3000000000001C271.6120833333333 571.0625 272.7208333333333 579.2333333333333 272.7208333333333 588.8145833333333V600.65C264.6833333333334 602.6225 256.09125 604.3133333333333 247.2225 605.4404166666668C238.3533333333333 606.5675 229.76125 607.13125 221.1695833333333 607.13125C202.6 607.13125 189.0191666666667 603.4679166666667 179.8729166666667 595.8595833333334C170.7266666666667 588.25125 166.2920833333333 577.5416666666667 166.2920833333333 563.4541666666667C166.2920833333333 550.2083333333334 169.6179166666667 540.3458333333333 176.5470833333333 533.5833333333333C183.19875 526.5375000000001 192.8991666666667 523.1583333333333 205.64875 523.1583333333333zM428.2083333333333 492.725C423.2166666666667 492.725 419.8916666666667 493.5666666666667 417.675 495.5416666666667C415.4570833333333 497.2333333333333 413.5170833333333 501.1791666666667 411.8541666666667 506.5291666666667L346.7220833333333 724.3566666666667C345.0591666666667 729.9929166666667 344.2275 733.6558333333334 344.2275 735.6287500000001C344.2275 740.1370833333333 346.445 742.6733333333334 350.8795833333334 742.6733333333334H378.0408333333333C383.3066666666667 742.6733333333334 386.91 741.8279166666666 388.85 739.8554166666667C391.0675 738.1645833333334 392.7304166666667 734.2195833333333 394.3933333333333 728.8654166666668L440.9541666666667 542.3208333333334L484.1916666666666 728.8654166666668C485.5791666666667 734.50125 487.2416666666666 738.1645833333334 489.4583333333333 739.8554166666667C491.675 741.54625 495.5541666666666 742.6733333333334 500.5458333333333 742.6733333333334H522.7166666666666C527.9833333333333 742.6733333333334 531.5875 741.8279166666666 533.8041666666666 739.8554166666667C536.0208333333333 738.1645833333334 537.9625 734.2195833333333 539.0708333333333 728.8654166666668L582.8625 540.0625L630.8083333333333 728.8654166666668C632.4708333333333 734.50125 634.4124999999999 738.1645833333334 636.3499999999999 739.8554166666667C638.5708333333333 741.54625 642.1708333333333 742.6733333333334 647.1625 742.6733333333334H672.9375C677.3708333333334 742.6733333333334 679.8666666666667 740.4191666666667 679.8666666666667 735.6287500000001C679.8666666666667 734.425 679.6625 733.2216666666667 679.4333333333333 731.8429166666667L679.3125 731.12C679.0333333333333 729.4291666666667 678.4791666666666 727.175 677.3708333333334 724.075L610.5749999999999 506.2500000000001C608.9124999999999 500.6125 606.9749999999999 496.95 604.7541666666666 495.2583333333334C602.5375 493.5666666666667 598.9374999999999 492.4416666666667 594.225 492.4416666666667H570.3874999999999C565.1208333333333 492.4416666666667 561.5208333333333 493.2875000000001 559.3041666666666 495.2583333333334C557.0833333333333 497.2333333333333 555.1458333333333 500.8958333333334 554.0375 506.5291666666667L511.075 688.2875L468.3958333333333 506.8125000000001C467.0083333333333 501.1791666666667 465.3458333333333 497.5125 463.1291666666667 495.5416666666667C460.9125 493.5666666666667 457.0291666666666 492.725 452.0416666666666 492.725H428.2083333333333zM784.3541666666666 485.1166666666667C769.9416666666666 485.1166666666667 755.5291666666666 486.8041666666667 741.6708333333333 490.1875C727.8125 493.5666666666667 717.0041666666667 497.2333333333333 709.8 501.4583333333334C705.3625 503.9958333333334 702.3166666666666 506.8125000000001 701.2083333333334 509.35C700.0999999999999 511.8833333333333 699.5458333333333 514.7041666666667 699.5458333333333 517.2375000000001V531.6125C699.5458333333333 537.5291666666667 701.7625 540.3458333333333 705.9166666666666 540.3458333333333C707.5833333333333 540.3458333333333 709.2458333333333 540.0625 710.9083333333334 539.5C711.9791666666665 539.1375 713.4 538.5374999999999 715.0208333333333 537.8541666666667C715.9041666666666 537.4833333333333 716.8583333333332 537.0791666666667 717.8375 536.6833333333334C727.2583333333333 532.4541666666667 737.5166666666665 529.075 748.325 526.8208333333334C759.4083333333333 524.5666666666667 770.2208333333332 523.4375 781.3041666666667 523.4375C798.7666666666667 523.4375 812.3458333333333 526.5375000000001 821.7708333333333 532.7375C831.1958333333332 538.9375 836.1833333333333 547.9541666666667 836.1833333333333 559.5083333333334C836.1833333333333 567.4 833.6875 573.8791666666666 828.6999999999999 579.2333333333333C823.7125 584.5879166666667 814.2874999999999 589.3783333333333 800.7083333333333 593.8870833333333L760.5166666666667 606.5675C740.2874999999999 613.04875 725.3208333333332 622.6295833333334 716.1749999999998 635.3104166666667C707.0291666666666 647.7091666666666 702.3166666666666 661.5170833333334 702.3166666666666 676.1704166666666C702.3166666666666 688.0058333333334 704.8083333333334 698.4320833333334 709.8 707.4491666666668C714.7875 716.4666666666667 721.4374999999999 724.3566666666667 729.7541666666666 730.5562500000001C738.0708333333332 737.0375 747.4916666666667 741.8279166666666 758.5791666666667 745.2095833333334C769.6666666666666 748.5912500000001 781.3041666666667 750 793.5 750C799.6 750 805.9708333333333 749.7183333333334 812.0708333333332 748.8729166666667C818.4458333333333 748.0275 824.2666666666665 746.9004166666666 830.0875 745.7729166666667C835.6291666666666 744.3641666666667 840.8958333333333 742.9549999999999 845.8833333333333 741.2645833333333C850.8708333333333 739.57375 854.7541666666666 737.8829166666667 857.525 736.1920833333334C861.4041666666666 733.9379166666668 864.1750000000001 731.6833333333334 865.8375 729.1475C867.5 726.8929166666667 868.3333333333333 723.7933333333333 868.3333333333333 719.8483333333334V706.60375C868.3333333333333 700.68625 866.1166666666666 697.5866666666666 861.9583333333334 697.5866666666666C859.7416666666667 697.5866666666666 856.1374999999999 698.71375 851.425 700.9679166666667C835.6291666666666 708.2945833333333 817.8916666666667 711.9579166666667 798.2125 711.9579166666667C782.4124999999999 711.9579166666667 769.9416666666666 709.4216666666666 761.35 704.0679166666666C752.7583333333332 698.71375 748.325 690.5416666666667 748.325 678.9883333333333C748.325 671.0979166666666 751.0958333333333 664.335 756.6375 658.9808333333333C762.1833333333333 653.6270833333333 772.4374999999999 648.2729166666667 787.1249999999999 643.4825000000001L826.4833333333332 630.8016666666667C846.4374999999999 624.3204166666667 860.8499999999999 615.3033333333333 869.4416666666665 603.7495833333334C878.0333333333333 592.19625 882.1916666666666 578.95 882.1916666666666 564.3000000000001C882.1916666666666 552.1833333333334 879.6958333333333 541.1916666666666 874.9833333333333 531.6125C869.9958333333333 522.0291666666667 863.3458333333333 513.575 854.7541666666666 506.8125000000001C846.1624999999999 499.7666666666667 835.9041666666666 494.6958333333334 823.9875 491.0333333333334C811.5166666666667 487.0875 798.4874999999998 485.1166666666667 784.3541666666666 485.1166666666667zM836.7375000000001 348.1625C745.5541666666667 279.6875 613.0708333333333 243.3375 499.1583333333332 243.3375C339.5158333333333 243.3375 195.6708333333334 303.3583333333334 87.025 403.1125000000001C78.4333333333333 411.0041666666667 86.19375 421.7125000000001 96.4483333333333 415.5125000000001C213.9633333333333 346.1916666666667 358.9170833333333 304.2041666666667 508.8583333333333 304.2041666666667C610.0208333333333 304.2041666666667 721.1624999999999 325.6208333333334 823.4333333333333 369.5791666666667C838.6791666666666 376.625 851.7041666666665 359.4333333333334 836.7375000000001 348.1625zM768.0041666666666 395.7875C797.6583333333332 399.4500000000001 863.0666666666666 407.3416666666667 874.7083333333333 392.125C886.35 377.1875 861.6833333333333 314.35 850.5958333333333 286.4500000000001C847.2708333333333 277.9958333333334 854.475 274.6166666666668 861.9583333333334 281.0958333333334C910.7375 322.8041666666667 923.4874999999998 409.875 913.5083333333332 422.5583333333334C903.5333333333334 434.9541666666668 817.8916666666667 445.6625 765.7833333333332 408.4666666666667C757.7458333333333 402.55 759.1333333333333 394.6583333333334 768.0041666666666 395.7875z" />
    <glyph glyph-name="baixo"
      unicode="&#xEA32;"
      horiz-adv-x="1000" d="M691.25 666.6666666666667L500 475.875L308.75 666.6666666666667L250 607.9583333333333L500 357.9166666666668L749.9583333333333 607.9583333333333L691.25 666.6666666666667z" />
    <glyph glyph-name="banco-brasil"
      unicode="&#xEA33;"
      horiz-adv-x="1000" d="M500.0833333333333 875L126.75 625.4583333333333L281.7916666666667 522.6666666666667L467.1666666666666 646.7916666666667L386.875 699.9583333333334L490.25 769.9166666666666L710.4166666666666 621.5L354.0833333333333 380.625L429.0833333333333 330.2916666666668L870.7499999999999 626.125L500.0833333333333 875zM722.875 772.2916666666667L799.6666666666666 719.75L874.7916666666666 769.9166666666666L875 872.9583333333334L722.875 772.2916666666667zM127.4166666666667 374.9583333333334L497.1249999999999 127.1666666666668L871.8333333333333 376.7083333333334L716.75 479.5416666666667L531.375 355.375L611.7083333333333 302.2083333333334L508.2916666666666 232.2500000000001L288.125 380.6666666666667L644.4583333333334 621.5416666666667L569.4583333333333 671.9166666666667L127.4166666666667 374.9583333333334zM125 226.0416666666668L125.7916666666667 125L278.9166666666667 226.0833333333333L202.375 278.2083333333334L125 226.0416666666668z" />
    </font>
</defs>
</svg>
